<svg width="121" height="27" viewBox="0 0 121 27" fill="none" xmlns="http://www.w3.org/2000/svg">
<path fill-rule="evenodd" clip-rule="evenodd" d="M19.0399 4.73297H5.58385L4.72485 21.243H38.9509L50.1749 21.978H55.3519L56.5029 11.389L33.2929 10.358L21.5389 13.355L19.0399 4.73297Z" fill="white"/>
<path d="M14.2469 23.636C14.6939 23.636 15.0809 23.471 15.4109 23.142C15.7409 22.812 15.9059 22.424 15.9059 21.978V20.64C15.9059 20.194 15.7409 19.806 15.4109 19.476C15.0809 19.146 14.6939 18.982 14.2469 18.982H8.02189C7.84689 18.982 7.75989 18.894 7.75989 18.72V15.142C7.75989 14.986 7.84689 14.909 8.02189 14.909H13.6659C14.1119 14.909 14.4999 14.744 14.8289 14.414C15.1589 14.084 15.3239 13.697 15.3239 13.251V12.203C15.3239 11.757 15.1589 11.37 14.8289 11.04C14.4989 10.71 14.1119 10.545 13.6659 10.545H8.02189C7.84689 10.545 7.75989 10.458 7.75989 10.283V7.28796C7.75989 7.13296 7.84689 7.05496 8.02189 7.05496H14.2469C14.6939 7.05496 15.0809 6.89096 15.4109 6.56096C15.7409 6.23096 15.9059 5.84296 15.9059 5.39696V4.05796C15.9059 3.61196 15.7409 3.22396 15.4109 2.89396C15.0809 2.56396 14.6939 2.39996 14.2469 2.39996H3.59989C3.15389 2.39996 2.76589 2.56496 2.43689 2.89396C2.10689 3.22396 1.94189 3.61196 1.94189 4.05796V21.978C1.94189 22.424 2.10689 22.812 2.43689 23.142C2.76689 23.472 3.15389 23.636 3.59989 23.636H14.2469V23.636Z" fill="#F45474"/>
<path d="M14.2469 1.56598C14.9169 1.56598 15.5039 1.80798 15.9999 2.30598C16.4969 2.80198 16.7389 3.38798 16.7389 4.05798V5.39598C16.7389 6.06598 16.4969 6.65198 15.9999 7.14898C15.5039 7.64598 14.9179 7.88798 14.2469 7.88798H8.79189L8.66189 9.48898L13.6869 9.71198C14.3489 9.71698 14.9269 9.95898 15.4199 10.451C15.9159 10.947 16.1579 11.533 16.1579 12.203V13.251C16.1579 13.921 15.9159 14.507 15.4199 15.004C14.9229 15.5 14.3369 15.742 13.6669 15.742H8.80089L8.65089 17.922L14.2669 18.148C14.9289 18.153 15.5089 18.395 16.0009 18.887C16.4979 19.384 16.7399 19.97 16.7399 20.64V21.978C16.7399 22.648 16.4979 23.234 16.0009 23.731C15.5049 24.228 14.9189 24.47 14.2479 24.47H3.59989C2.92989 24.47 2.34389 24.228 1.84689 23.73C1.35089 23.234 1.10889 22.648 1.10889 21.978V4.05798C1.10889 3.38798 1.35089 2.80198 1.84689 2.30498C2.34389 1.80798 2.92989 1.56598 3.59989 1.56598H14.2469Z" stroke="white" stroke-width="1.667" stroke-linejoin="round"/>
<path d="M21.9488 23.636C22.3948 23.636 22.7828 23.471 23.1128 23.142C23.4428 22.812 23.6068 22.424 23.6068 21.978V3.47599C23.6068 3.02999 23.4428 2.64199 23.1128 2.31299C22.7818 1.98299 22.3948 1.81799 21.9488 1.81799H19.4468C19.0008 1.81799 18.6138 1.98299 18.2838 2.31299C17.9538 2.64299 17.7888 3.02999 17.7888 3.47599V21.978C17.7888 22.424 17.9538 22.812 18.2838 23.142C18.6138 23.472 19.0008 23.636 19.4468 23.636H21.9488Z" fill="#F45474"/>
<path d="M21.9488 0.984985C22.6188 0.984985 23.2058 1.22699 23.7018 1.72299C24.1988 2.21999 24.4408 2.80599 24.4408 3.47599V21.978C24.4408 22.648 24.1988 23.234 23.7018 23.731C23.2058 24.228 22.6198 24.47 21.9488 24.47H19.4468C18.7768 24.47 18.1908 24.228 17.6948 23.73C17.1978 23.234 16.9548 22.648 16.9548 21.978V3.47599C16.9548 2.80599 17.1978 2.21999 17.6948 1.72299C18.1908 1.22699 18.7768 0.984985 19.4468 0.984985H21.9488Z" stroke="white" stroke-width="1.667" stroke-linejoin="round"/>
<path d="M36.3299 8.56797C36.9529 8.30497 37.5429 9.09297 37.5429 9.09297C38.6589 8.79697 39.3809 9.58497 39.6759 10.241C40.9229 10.044 41.6779 11.422 41.4479 12.275L41.4849 12.299C41.6329 12.402 42.1809 12.826 42.0389 13.424C42.8589 14.08 42.4979 15.195 42.3339 15.556C42.8259 16.344 42.5969 16.803 42.0719 17.426C42.5309 18.411 42.1039 19.428 41.2179 19.691C41.2179 19.691 41.5139 21.266 39.9379 21.594C39.3479 23.038 37.8379 22.841 37.8379 22.841L37.8279 22.864L37.7919 22.926C37.6319 23.191 37.0409 23.956 35.6729 23.628C34.9509 24.514 33.6059 24.219 32.9489 23.563C32.1629 24.219 31.3359 23.817 30.5879 23.267C30.1409 22.94 29.4789 23.233 28.8939 22.777C29.0599 22.385 29.1739 21.865 29.3589 21.06C29.4039 20.86 29.5739 20.672 29.7649 20.592C30.7399 20.184 31.9329 21.178 33.2219 19.885C33.4809 19.651 33.7669 19.109 33.8339 18.497C33.9139 17.811 33.8829 17.484 34.4509 16.839C35.3609 17.142 36.6699 16.709 37.6969 15.681C38.9769 14.399 39.3369 12.681 38.4989 11.841C37.6609 11.004 35.9439 11.363 34.6639 12.644C33.6299 13.68 33.1979 15.001 33.5119 15.912C32.2179 17.559 32.9949 18.269 32.3779 19.135C31.9719 19.705 30.7819 19.483 30.3229 19.504C29.0689 19.559 28.5079 20.34 28.4299 21.456C28.4099 21.738 28.3759 21.972 28.3229 22.172C28.0589 21.881 27.9669 21.82 27.6339 21.725C27.1749 21.594 26.8469 21.298 26.7809 20.183C26.7149 19.428 26.0589 19.822 26.0259 18.542C26.0209 18.35 26.0189 18.194 26.0189 18.067V17.623C26.0149 17.394 25.9869 17.394 25.8289 17.099C25.5669 16.607 25.7639 16.344 25.8949 15.819C26.0259 15.294 25.5999 14.572 26.2549 13.85C26.4979 13.568 26.5289 13.446 26.5329 13.25V13.084C26.5329 12.991 26.5359 12.878 26.5509 12.734C26.6169 12.111 26.8789 12.111 27.1749 11.816C27.4049 11.554 27.3059 10.766 28.3229 10.208C28.8809 9.94597 28.8809 9.87997 29.1759 9.58497C29.4719 9.28897 30.0959 9.09297 30.6199 9.09297C30.6199 9.09297 31.4399 7.81297 33.1139 8.20697C34.4589 7.58297 35.6739 7.71397 36.3299 8.56697V8.56797Z" fill="#F45474"/>
<path d="M33.0189 7.33896C33.7589 7.03896 34.4619 6.93696 35.0759 7.00596C35.7009 7.07596 36.2449 7.31596 36.6759 7.71396C37.0959 7.76796 37.4869 7.99596 37.7699 8.20596C38.3049 8.15296 38.7699 8.27296 39.1619 8.48496C39.5759 8.70796 39.9099 9.04396 40.1539 9.39896C40.7649 9.46196 41.2769 9.77195 41.6539 10.204C42.0809 10.695 42.3079 11.342 42.3179 11.924C42.4559 12.066 42.5969 12.241 42.7009 12.443C42.8019 12.641 42.8729 12.86 42.8909 13.098C43.1709 13.436 43.3109 13.819 43.3649 14.202C43.4299 14.672 43.3469 15.14 43.2439 15.49C43.4329 15.907 43.4689 16.267 43.4219 16.6C43.3759 16.927 43.2359 17.242 43.0069 17.576C43.1469 18.12 43.1069 18.651 42.9359 19.106C42.7639 19.562 42.4609 19.948 42.0579 20.212C42.0299 20.57 41.9319 21.018 41.6619 21.42C41.4289 21.766 41.0769 22.093 40.5229 22.293C39.9079 23.369 38.8849 23.623 38.2629 23.671C38.0349 23.933 37.7019 24.213 37.2329 24.384C36.8899 24.509 36.4669 24.58 35.9469 24.522C35.4939 24.878 34.9489 25.028 34.3939 25.014C33.8679 25.002 33.3389 24.833 32.8989 24.569C32.5309 24.729 32.1589 24.764 31.7929 24.719C31.2189 24.647 30.6369 24.337 30.0949 23.939C29.5609 23.891 29.1619 23.839 28.8119 23.689L28.7869 23.677L28.7369 23.866L28.1629 23.234L28.1059 23.175L28.0799 23.143L27.7069 22.733C27.0149 22.426 26.6409 22.206 26.3719 21.793L26.2939 21.664C26.1269 21.362 25.9929 20.924 25.9509 20.256C25.6219 20.006 25.2239 19.743 25.1929 18.564L25.1919 18.405V17.959C25.1909 17.717 25.1799 17.651 25.1139 17.529C24.7509 16.848 24.8339 16.45 25.0059 15.896C25.0899 15.582 25.0839 15.452 25.0709 15.313C25.0139 14.684 25.0019 13.991 25.6389 13.29C25.7919 11.966 26.0669 11.665 26.3589 11.42C26.8249 10.477 27.0899 9.93396 27.9219 9.47696C28.2689 9.31296 28.3259 9.26596 28.4439 9.14196C28.9309 8.65096 29.5859 8.37496 30.2039 8.28896C30.4519 8.02696 30.8639 7.68296 31.4439 7.47596C31.8739 7.32396 32.3979 7.24196 33.0189 7.33896ZM37.9089 12.431C37.6689 12.191 37.2929 12.185 36.9179 12.264C36.3609 12.38 35.7659 12.72 35.2539 13.233C34.8389 13.649 34.5389 14.119 34.3759 14.58C34.2419 14.96 34.1939 15.334 34.2999 15.64C34.3109 15.69 34.3199 15.736 34.3269 15.778L34.3309 15.82L34.4829 15.888C35.0289 16.118 35.3609 16.098 35.6779 15.998L35.7729 15.966C36.2299 15.803 36.6959 15.504 37.1079 15.092C37.6199 14.579 37.9599 13.982 38.0759 13.424C38.1549 13.049 38.1489 12.671 37.9089 12.431Z" stroke="white" stroke-width="1.667" stroke-linejoin="round"/>
<path d="M48.517 23.636C48.963 23.636 49.35 23.471 49.68 23.142C50.01 22.812 50.175 22.424 50.175 21.978V14.618C50.175 14.114 50.403 13.648 50.858 13.222C51.314 12.795 51.814 12.582 52.357 12.582C53.016 12.582 53.472 12.746 53.724 13.076C53.976 13.406 54.102 14.016 54.102 14.909V21.978C54.102 22.424 54.267 22.812 54.597 23.142C54.927 23.472 55.314 23.636 55.76 23.636H57.826C58.272 23.636 58.66 23.471 58.989 23.142C59.319 22.812 59.484 22.424 59.484 21.978V14.908C59.484 12.465 59.101 10.739 58.334 9.73102C57.569 8.72202 56.304 8.21802 54.538 8.21802C52.774 8.21802 51.29 8.94502 50.088 10.4C50.088 10.42 50.068 10.429 50.029 10.429C50.009 10.429 50 10.419 50 10.399V10.168C49.98 9.70302 49.806 9.31002 49.477 8.99002C49.147 8.67002 48.749 8.51002 48.284 8.51002H46.306C45.86 8.51002 45.472 8.67502 45.142 9.00402C44.812 9.33402 44.647 9.72202 44.647 10.168V21.978C44.647 22.424 44.812 22.812 45.142 23.142C45.472 23.472 45.86 23.636 46.306 23.636H48.516H48.517Z" fill="#F45474"/>
<path d="M54.538 7.38501C56.638 7.38501 58.098 8.04201 58.998 9.22701C59.839 10.333 60.318 12.21 60.318 14.909V21.978C60.318 22.648 60.075 23.234 59.578 23.731C59.082 24.228 58.496 24.47 57.826 24.47H55.76C55.09 24.47 54.504 24.228 54.007 23.73C53.511 23.234 53.269 22.648 53.269 21.978V14.908C53.269 14.285 53.244 13.821 53.062 13.582C52.932 13.412 52.659 13.415 52.357 13.415C52.016 13.415 51.71 13.565 51.427 13.83C51.171 14.07 51.008 14.325 51.008 14.618V21.978C51.008 22.648 50.766 23.234 50.269 23.731C49.773 24.228 49.187 24.47 48.517 24.47H46.306C45.636 24.47 45.049 24.228 44.553 23.73C44.056 23.234 43.814 22.648 43.814 21.978V10.168C43.814 9.49701 44.056 8.91101 44.553 8.41401C45.049 7.91801 45.635 7.67601 46.306 7.67601H48.284C48.976 7.67601 49.567 7.91601 50.057 8.39101C51.603 7.88201 52.975 7.38501 54.538 7.38501Z" stroke="white" stroke-width="1.667" stroke-linejoin="round"/>
<path d="M66.3207 22.8066C65.8786 22.6961 65.5195 22.4567 65.2432 22.0883C64.9854 21.7016 64.8564 21.2688 64.8564 20.7899V19.823C64.8564 19.4546 65.0038 19.1691 65.2985 18.9665C65.6116 18.7639 65.9431 18.7271 66.293 18.856C67.5639 19.2796 68.7702 19.4914 69.9121 19.4914C71.0356 19.4914 71.8644 19.1507 72.3985 18.4693C72.9326 17.7878 73.1997 16.6275 73.1997 14.9883V4.40728C73.1997 3.98367 73.347 3.61532 73.6417 3.30222C73.9548 2.98912 74.3232 2.83256 74.7468 2.83256H76.4596C76.8833 2.83256 77.2516 2.98912 77.5647 3.30222C77.8778 3.61532 78.0344 3.98367 78.0344 4.40728V15.6237C78.0344 18.3495 77.445 20.311 76.2663 21.5082C75.0875 22.6869 73.1905 23.2763 70.5752 23.2763C69.0833 23.2763 67.6652 23.1197 66.3207 22.8066Z" fill="#F45474"/>
<path d="M83.2618 23C82.8382 23 82.4699 22.8435 82.1568 22.5304C81.8437 22.2173 81.6871 21.8489 81.6871 21.4253V10.2089C81.6871 9.78527 81.8437 9.41692 82.1568 9.10382C82.4699 8.79071 82.8382 8.63416 83.2618 8.63416H84.8089C85.2325 8.63416 85.6009 8.79071 85.914 9.10382C86.2271 9.41692 86.3837 9.78527 86.3837 10.2089V21.4253C86.3837 21.8489 86.2271 22.2173 85.914 22.5304C85.6009 22.8435 85.2325 23 84.8089 23H83.2618ZM83.2618 5.8715C82.8382 5.8715 82.4699 5.71495 82.1568 5.40184C81.8437 5.08874 81.6871 4.72039 81.6871 4.29678V3.85475C81.6871 3.43114 81.8437 3.06279 82.1568 2.74968C82.4699 2.43658 82.8382 2.28003 83.2618 2.28003H84.8089C85.2325 2.28003 85.6009 2.43658 85.914 2.74968C86.2271 3.06279 86.3837 3.43114 86.3837 3.85475V4.29678C86.3837 4.72039 86.2271 5.08874 85.914 5.40184C85.6009 5.71495 85.2325 5.8715 84.8089 5.8715H83.2618Z" fill="#F45474"/>
<path d="M91.0129 18.6626L96.5934 11.8389V11.7836C96.5934 11.7652 96.5842 11.756 96.5658 11.756H91.593C91.1694 11.756 90.801 11.6086 90.4879 11.3139C90.1748 11.0008 90.0183 10.6325 90.0183 10.2089C90.0183 9.78527 90.1748 9.41692 90.4879 9.10382C90.801 8.79071 91.1694 8.63416 91.593 8.63416H100.599C101.023 8.63416 101.391 8.79071 101.704 9.10382C102.017 9.41692 102.174 9.78527 102.174 10.2089C102.174 11.2403 101.843 12.1612 101.179 12.9715L95.5989 19.7953V19.8506C95.5989 19.869 95.6081 19.8782 95.6265 19.8782H100.599C101.023 19.8782 101.391 20.0348 101.704 20.3479C102.017 20.6426 102.174 21.0017 102.174 21.4253C102.174 21.8489 102.017 22.2173 101.704 22.5304C101.391 22.8435 101.023 23 100.599 23H91.593C91.1694 23 90.801 22.8435 90.4879 22.5304C90.1748 22.2173 90.0183 21.8489 90.0183 21.4253C90.0183 20.3939 90.3498 19.473 91.0129 18.6626Z" fill="#F45474"/>
<path d="M106.132 18.6626L111.713 11.8389V11.7836C111.713 11.7652 111.703 11.756 111.685 11.756H106.712C106.289 11.756 105.92 11.6086 105.607 11.3139C105.294 11.0008 105.137 10.6325 105.137 10.2089C105.137 9.78527 105.294 9.41692 105.607 9.10382C105.92 8.79071 106.289 8.63416 106.712 8.63416H115.718C116.142 8.63416 116.51 8.79071 116.823 9.10382C117.137 9.41692 117.293 9.78527 117.293 10.2089C117.293 11.2403 116.962 12.1612 116.299 12.9715L110.718 19.7953V19.8506C110.718 19.869 110.727 19.8782 110.746 19.8782H115.718C116.142 19.8782 116.51 20.0348 116.823 20.3479C117.137 20.6426 117.293 21.0017 117.293 21.4253C117.293 21.8489 117.137 22.2173 116.823 22.5304C116.51 22.8435 116.142 23 115.718 23H106.712C106.289 23 105.92 22.8435 105.607 22.5304C105.294 22.2173 105.137 21.8489 105.137 21.4253C105.137 20.3939 105.469 19.473 106.132 18.6626Z" fill="#F45474"/>
<path fill-rule="evenodd" clip-rule="evenodd" d="M65.867 24.7545L65.8356 24.7469C64.9428 24.5237 64.1919 24.0199 63.6432 23.2883C63.621 23.2587 63.5996 23.2285 63.5791 23.1977C63.0953 22.4721 62.8564 21.651 62.8564 20.7899V19.823C62.8564 18.8197 63.3088 17.9074 64.1654 17.3185C64.1808 17.3079 64.1963 17.2975 64.212 17.2874C65.0426 16.7499 66.018 16.6357 66.9475 16.966C68.0401 17.328 69.0247 17.4914 69.9121 17.4914C70.6197 17.4914 70.7771 17.2959 70.8244 17.2355C70.9266 17.1052 71.1997 16.5251 71.1997 14.9883V4.40728C71.1997 3.46576 71.5473 2.60939 72.1853 1.93149C72.1992 1.91678 72.2132 1.90228 72.2275 1.888C72.8968 1.21875 73.7666 0.832564 74.7468 0.832564H76.4596C77.4399 0.832564 78.3097 1.21875 78.9789 1.888L77.5647 3.30222C77.2516 2.98911 76.8833 2.83256 76.4596 2.83256H74.7468C74.3232 2.83256 73.9548 2.98911 73.6417 3.30222C73.347 3.61532 73.1997 3.98367 73.1997 4.40728V14.9883C73.1997 16.6275 72.9326 17.7878 72.3985 18.4693C71.8644 19.1507 71.0356 19.4914 69.9121 19.4914C68.7702 19.4914 67.5639 19.2796 66.293 18.856C65.9431 18.7271 65.6116 18.7639 65.2985 18.9665C65.0038 19.1691 64.8564 19.4546 64.8564 19.823V20.7899C64.8564 21.2688 64.9854 21.7016 65.2432 22.0883C65.5195 22.4567 65.8786 22.6961 66.3207 22.8066C67.6652 23.1197 69.0833 23.2763 70.5752 23.2763C73.1905 23.2763 75.0875 22.6869 76.2663 21.5082C77.445 20.311 78.0344 18.3495 78.0344 15.6237V4.40728C78.0344 3.98367 77.8778 3.61532 77.5647 3.30222L78.9789 1.888C79.3235 2.2326 79.5931 2.63037 79.7735 3.069C79.9223 2.40893 80.2583 1.8197 80.7426 1.33547C81.4118 0.666221 82.2816 0.280029 83.2618 0.280029H84.8089C85.7892 0.280029 86.659 0.666221 87.3282 1.33547C87.9975 2.00472 88.3837 2.87453 88.3837 3.85475V4.29678C88.3837 5.277 87.9975 6.14681 87.3282 6.81606C87.1654 6.9789 86.9907 7.12499 86.8054 7.25283C86.9907 7.38067 87.1654 7.52676 87.3282 7.6896C87.7268 8.08819 88.025 8.55791 88.201 9.07972C88.377 8.55791 88.6751 8.08818 89.0737 7.6896C89.743 7.02035 90.6128 6.63416 91.593 6.63416H100.599C101.58 6.63416 102.449 7.02035 103.119 7.6896C103.326 7.8968 103.506 8.12322 103.656 8.36619C103.806 8.12322 103.986 7.8968 104.193 7.6896C104.862 7.02035 105.732 6.63416 106.712 6.63416H115.718C116.699 6.63416 117.568 7.02035 118.238 7.6896C118.907 8.35885 119.293 9.22866 119.293 10.2089C119.293 11.7096 118.797 13.0762 117.847 14.238L114.87 17.8782H115.718C116.688 17.8782 117.55 18.2563 118.216 18.9125C118.91 19.5762 119.293 20.4512 119.293 21.4253C119.293 22.4055 118.907 23.2753 118.238 23.9446C117.568 24.6138 116.699 25 115.718 25H106.712C105.732 25 104.862 24.6138 104.193 23.9446C103.986 23.7374 103.806 23.511 103.656 23.268C103.506 23.511 103.326 23.7374 103.119 23.9446C102.449 24.6138 101.58 25 100.599 25H91.593C90.6128 25 89.743 24.6138 89.0737 23.9446C88.6751 23.546 88.377 23.0763 88.201 22.5545C88.025 23.0763 87.7268 23.546 87.3282 23.9446C86.659 24.6138 85.7892 25 84.8089 25H83.2618C82.2816 25 81.4118 24.6138 80.7426 23.9446C80.0733 23.2753 79.6871 22.4055 79.6871 21.4253V19.0343C79.3386 20.5534 78.7057 21.8812 77.6914 22.9114L77.6805 22.9224C75.9608 24.642 73.4281 25.2763 70.5752 25.2763C68.9428 25.2763 67.3717 25.1049 65.867 24.7545ZM80.0344 8.67764C80.2103 8.31483 80.4492 7.98295 80.7426 7.6896C80.9054 7.52676 81.0801 7.38067 81.2654 7.25283C81.0801 7.12499 80.9054 6.9789 80.7426 6.81606C80.4492 6.52271 80.2103 6.19083 80.0344 5.82802V8.67764ZM88.3837 19.2878C88.6265 18.6119 88.9885 17.9785 89.4647 17.3965C89.4648 17.3964 89.4646 17.3966 89.4647 17.3965L92.4419 13.756H91.593C90.6515 13.756 89.7951 13.4084 89.1172 12.7703C89.1025 12.7565 89.088 12.7424 89.0737 12.7282C88.7903 12.4448 88.5577 12.1254 88.3837 11.777V19.2878ZM96.5658 11.756C96.5842 11.756 96.5934 11.7652 96.5934 11.7836V11.8389L91.0129 18.6626C90.3498 19.473 90.0183 20.3939 90.0183 21.4253C90.0183 21.8489 90.1748 22.2173 90.4879 22.5304C90.801 22.8435 91.1694 23 91.593 23H100.599C101.023 23 101.391 22.8435 101.704 22.5304C102.017 22.2173 102.174 21.8489 102.174 21.4253C102.174 21.0017 102.017 20.6426 101.704 20.3479C101.391 20.0348 101.023 19.8782 100.599 19.8782H95.6265C95.6081 19.8782 95.5989 19.869 95.5989 19.8506V19.7953L101.179 12.9715C101.843 12.1612 102.174 11.2403 102.174 10.2089C102.174 9.78527 102.017 9.41692 101.704 9.10382C101.391 8.79071 101.023 8.63416 100.599 8.63416H91.593C91.1694 8.63416 90.801 8.79071 90.4879 9.10382C90.1748 9.41692 90.0183 9.78527 90.0183 10.2089C90.0183 10.6325 90.1748 11.0008 90.4879 11.3139C90.801 11.6086 91.1694 11.756 91.593 11.756H96.5658ZM102.727 14.238L99.7504 17.8782H100.599C101.569 17.8782 102.431 18.2563 103.097 18.9126C103.239 19.0481 103.368 19.1923 103.483 19.3445C103.726 18.6472 104.095 17.9945 104.584 17.3962L107.561 13.756H106.712C105.771 13.756 104.914 13.4084 104.236 12.7703C104.222 12.7565 104.207 12.7424 104.193 12.7282C104.058 12.5937 103.935 12.4512 103.825 12.3013C103.582 12.9943 103.214 13.643 102.727 14.238ZM111.685 11.756C111.703 11.756 111.713 11.7652 111.713 11.7836V11.8389L106.132 18.6626C105.469 19.473 105.137 20.3939 105.137 21.4253C105.137 21.8489 105.294 22.2173 105.607 22.5304C105.92 22.8435 106.289 23 106.712 23H115.718C116.142 23 116.51 22.8435 116.823 22.5304C117.137 22.2173 117.293 21.8489 117.293 21.4253C117.293 21.0017 117.137 20.6426 116.823 20.3479C116.51 20.0348 116.142 19.8782 115.718 19.8782H110.746C110.727 19.8782 110.718 19.869 110.718 19.8506V19.7953L116.299 12.9715C116.962 12.1612 117.293 11.2403 117.293 10.2089C117.293 9.78527 117.137 9.41692 116.823 9.10382C116.51 8.79071 116.142 8.63416 115.718 8.63416H106.712C106.289 8.63416 105.92 8.79071 105.607 9.10382C105.294 9.41692 105.137 9.78527 105.137 10.2089C105.137 10.6325 105.294 11.0008 105.607 11.3139C105.92 11.6086 106.289 11.756 106.712 11.756H111.685ZM82.1568 22.5304C82.4699 22.8435 82.8382 23 83.2618 23H84.8089C85.2325 23 85.6009 22.8435 85.914 22.5304C86.2271 22.2173 86.3837 21.8489 86.3837 21.4253V10.2089C86.3837 9.78527 86.2271 9.41692 85.914 9.10382C85.6009 8.79071 85.2325 8.63416 84.8089 8.63416H83.2618C82.8382 8.63416 82.4699 8.79071 82.1568 9.10382C81.8437 9.41692 81.6871 9.78527 81.6871 10.2089V21.4253C81.6871 21.8489 81.8437 22.2173 82.1568 22.5304ZM82.1568 5.40184C82.4699 5.71495 82.8382 5.8715 83.2618 5.8715H84.8089C85.2325 5.8715 85.6009 5.71495 85.914 5.40184C86.2271 5.08874 86.3837 4.72039 86.3837 4.29678V3.85475C86.3837 3.43114 86.2271 3.06279 85.914 2.74968C85.6009 2.43658 85.2325 2.28003 84.8089 2.28003H83.2618C82.8382 2.28003 82.4699 2.43658 82.1568 2.74968C81.8437 3.06279 81.6871 3.43114 81.6871 3.85475V4.29678C81.6871 4.72039 81.8437 5.08874 82.1568 5.40184Z" fill="white"/>
</svg>
