<?xml version="1.0" encoding="UTF-8"?>
<svg width="495px" height="110px" viewBox="0 0 495 110" version="1.1" xmlns="http://www.w3.org/2000/svg" xmlns:xlink="http://www.w3.org/1999/xlink">
    <title>black ribbon</title>
    <defs>
        <filter x="-5.0%" y="-30.3%" width="110.0%" height="160.5%" filterUnits="objectBoundingBox" id="filter-1">
            <feOffset dx="0" dy="4" in="SourceAlpha" result="shadowOffsetOuter1"></feOffset>
            <feGaussianBlur stdDeviation="4" in="shadowOffsetOuter1" result="shadowBlurOuter1"></feGaussianBlur>
            <feColorMatrix values="0 0 0 0 0   0 0 0 0 0   0 0 0 0 0  0 0 0 0.16 0" type="matrix" in="shadowBlurOuter1" result="shadowMatrixOuter1"></feColorMatrix>
            <feMerge>
                <feMergeNode in="shadowMatrixOuter1"></feMergeNode>
                <feMergeNode in="SourceGraphic"></feMergeNode>
            </feMerge>
        </filter>
        <linearGradient x1="-1.11022302e-14%" y1="50%" x2="100%" y2="50%" id="linearGradient-2">
            <stop stop-color="#42474C" offset="0%"></stop>
            <stop stop-color="#1E2024" offset="100%"></stop>
        </linearGradient>
    </defs>
    <g id="Web" stroke="none" stroke-width="1" fill="none" fill-rule="evenodd">
        <g id="black-ribbon" filter="url(#filter-1)" transform="translate(17.000000, 17.000000)">
            <polygon id="Rectangle" fill="#32353A" points="1.72661885e-12 15.9927667 81 12 81 72.0072333 1.72661885e-12 76 22.5 46.4882459"></polygon>
            <polygon id="Rectangle" fill="#1E2024" points="36 0 81 11.8356164 81 72 36 60.1643836"></polygon>
            <polygon id="Rectangle" fill="#2A2D31" transform="translate(420.500000, 44.000000) scale(-1, 1) translate(-420.500000, -44.000000) " points="380 15.884058 461 12 461 72.115942 380 76 402.5 46.4347826"></polygon>
            <polygon id="Rectangle" fill="#0C0C0E" transform="translate(402.500000, 36.000000) scale(-1, 1) translate(-402.500000, -36.000000) " points="380 0 425 11.8356164 425 72 380 60.1643836"></polygon>
            <path d="M36,0 C100.474625,2.62564103 165.186319,3.93846154 230.135084,3.93846154 C295.083849,3.93846154 360.038821,2.62564103 425,0 L425,60.0615385 C359.807958,62.6871795 294.852986,64 230.135084,64 C165.417183,64 100.705488,62.6871795 36,60.0615385 L36,0 Z" id="Rectangle" fill="url(#linearGradient-2)"></path>
        </g>
    </g>
</svg>