<?xml version="1.0" encoding="UTF-8"?>
<svg width="1441px" height="1810px" viewBox="0 0 1441 1810" version="1.1" xmlns="http://www.w3.org/2000/svg" xmlns:xlink="http://www.w3.org/1999/xlink">
    <title>Background Shapes</title>
    <defs>
        <linearGradient x1="50%" y1="0%" x2="50%" y2="64.5226779%" id="linearGradient-1">
            <stop stop-color="#FFB9C4" offset="0%"></stop>
            <stop stop-color="#FFF9F9" offset="100%"></stop>
        </linearGradient>
        <linearGradient x1="50%" y1="0%" x2="50%" y2="100%" id="linearGradient-2">
            <stop stop-color="#FFC1CA" offset="0%"></stop>
            <stop stop-color="#FFCFD6" offset="100%"></stop>
        </linearGradient>
        <linearGradient x1="50%" y1="0%" x2="50%" y2="100%" id="linearGradient-3">
            <stop stop-color="#FFC8D0" offset="0%"></stop>
            <stop stop-color="#FFE3E7" offset="100%"></stop>
        </linearGradient>
        <linearGradient x1="50%" y1="100%" x2="50%" y2="0.450721154%" id="linearGradient-4">
            <stop stop-color="#FFF0F2" offset="0%"></stop>
            <stop stop-color="#FFD3D9" offset="100%"></stop>
        </linearGradient>
        <linearGradient x1="50%" y1="100%" x2="50%" y2="0.450721154%" id="linearGradient-5">
            <stop stop-color="#FFF0F3" offset="0%"></stop>
            <stop stop-color="#FFE3E7" offset="100%"></stop>
        </linearGradient>
        <linearGradient x1="50%" y1="0%" x2="50%" y2="64.5226779%" id="linearGradient-6">
            <stop stop-color="#FFF9F9" stop-opacity="0" offset="0%"></stop>
            <stop stop-color="#FFF9F9" offset="100%"></stop>
        </linearGradient>
    </defs>
    <g id="Page-1" stroke="none" stroke-width="1" fill="none" fill-rule="evenodd">
        <g id="Background-Shapes" transform="translate(0.970044, 0.000000)">
            <rect id="Rectangle" fill="url(#linearGradient-1)" x="0" y="0" width="1440" height="1810"></rect>
            <path d="M531.167383,1649.15073 C531.167383,1450.67621 267.111784,993.606719 267.111784,879.895894 C267.111784,766.185069 373.960476,730.242085 373.960476,609.959361 C373.960476,489.676637 118.37229,372.661006 154.461385,230.965047 C190.55048,89.2690881 409.116776,0 737.340947,0 C1065.56512,0 1230.58178,102.453303 1265.23574,230.965047 C1299.88969,359.476791 1081.94899,499.635529 1081.94899,609.959361 C1081.94899,720.283193 1185.18274,725.01572 1185.18274,879.895894 C1185.18274,1034.77607 947.4757,1450.67621 947.4757,1649.15073 C947.4757,1847.62526 531.167383,1847.62526 531.167383,1649.15073 Z" id="Path" fill="url(#linearGradient-2)"></path>
            <path d="M572.22327,1556.55949 C572.22327,1551.0291 571.956803,1375.3316 571.443171,1369.30124 C557.775833,1208.83821 369.103579,879.164182 369.103579,794.853085 C369.103579,707.373495 451.294881,679.721972 451.294881,587.186513 C451.294881,494.651054 254.688583,404.629024 282.449426,295.620015 C310.210268,186.611006 478.338188,117.934843 730.81832,117.934843 C983.298451,117.934843 1110.23434,196.753838 1136.89124,295.620015 C1163.54813,394.486193 995.901433,502.312592 995.901433,587.186513 C995.901433,672.060434 1075.31201,675.701244 1075.31201,794.853085 C1075.31201,910.033349 904.446924,1212.85701 893.056353,1370.84108 C892.66359,1376.2886 892.460437,1551.47003 892.460437,1556.55949 C892.460437,1709.24917 572.22327,1709.24917 572.22327,1556.55949 Z" id="Path" fill="url(#linearGradient-3)"></path>
            <path d="M1108.83073,266.671865 C1150.89218,232.783082 1265.86937,224.298136 1318.69401,266.671865 C1371.51864,309.045594 1378.44196,469.741217 1353.84792,517.272337 C1329.25389,564.803456 1258.97817,631.165614 1171.71052,583.20773 C1084.44287,535.249847 1082.86434,466.447235 1118.83368,421.898465 C1154.80302,377.349696 1124.11643,386.225582 1108.83073,397.640175 C1100.2675,404.034767 1054.95216,441.577463 993.556054,463.121859 C967.083242,522.132331 906.732955,581.196793 906.732955,630.59986 C906.732955,698.916007 961.39698,701.846544 961.39698,797.753444 C961.39698,890.116593 844.656977,1132.38798 836.02991,1259.94119 C835.71215,1264.63934 835.541063,1536.29829 835.527884,1562.04126 L835.52706,1563.94122 L835.52706,1563.94122 C835.52706,1686.84318 615.084731,1686.84318 615.084731,1563.94122 L615.083964,1562.67446 C615.076122,1552.35563 615.008238,1484.31775 614.882812,1414.98787 L614.866125,1405.94215 C614.727194,1332.0847 614.523092,1259.54502 614.256841,1256.52588 C602.75464,1126.09711 475.262804,864.990608 475.262804,797.753444 C475.262804,727.33996 531.841002,705.082881 531.841002,630.59986 C531.841002,576.194404 459.632052,522.868356 428.150431,463.877193 C365.641537,442.471713 319.348408,404.110552 310.683691,397.640175 C295.397997,386.225582 264.711405,377.349696 300.680745,421.898465 C336.650084,466.447235 335.071552,535.249847 247.803901,583.20773 C160.53625,631.165614 90.2605381,564.803456 65.6664996,517.272337 C41.072461,469.741217 47.9957812,309.045594 100.820416,266.671865 C153.64505,224.298136 268.622243,232.783082 310.683691,266.671865 C339.602605,289.971747 376.487977,334.520621 435.895819,350.705201 C479.52632,289.612022 582.606434,252.892952 724.257137,252.892952 C863.308707,252.892952 947.041712,293.502753 984.362976,350.495643 C1043.33617,334.146748 1080.03329,289.873878 1108.83073,266.671865 Z" id="Combined-Shape" fill="url(#linearGradient-4)"></path>
            <path d="M719.970044,275.224003 C831.341715,275.224003 892.320321,326.721173 912.134205,394.773493 C924.525713,398.29829 938.153105,401.317608 953.015758,403.831319 C1026.30857,416.227285 1074.10963,334.594137 1107.69915,307.516922 C1141.28866,280.439707 1227.57263,273.660216 1269.75743,307.516922 C1311.94222,341.373628 1323.00579,457.88795 1303.36544,495.865423 C1283.72508,533.842896 1229.98147,550.989368 1179.64854,523.314373 C1129.3156,495.639378 1132.53813,442.160468 1174.5717,403.831319 C1216.60527,365.502169 1188.0724,342.609972 1147.88577,352.627742 C1113.7446,361.138495 1011.99167,447.910743 917.550431,445.288681 C910.495485,514.64832 848.470044,586.976745 848.470044,645.482786 C848.470044,712.451785 886.964609,715.324533 886.964609,809.340215 C886.964609,899.441827 805.553381,1135.07016 798.774744,1260.58225 C798.48911,1265.87101 798.335991,1534.27077 798.32706,1554.94775 L798.326646,1556.14025 L798.326646,1556.14025 C798.326646,1676.61867 643.090519,1676.61867 643.090519,1556.14025 L643.090295,1555.4937 C643.082979,1539.58887 642.896574,1265.38564 642.546396,1259.68891 C634.699966,1132.04241 544.627512,875.358726 544.627512,809.340215 C544.627512,740.315236 584.470044,718.497052 584.470044,645.482786 C584.470044,580.883973 509.86776,517.837545 501.99054,444.594618 C413.515278,436.217823 323.216056,360.546495 291.449706,352.627742 C251.263079,342.609972 222.730211,365.502169 264.763779,403.831319 C306.797347,442.160468 310.019879,495.639378 259.686944,523.314373 C209.354008,550.989368 155.610397,533.842896 135.970044,495.865423 C116.32969,457.88795 127.393255,341.373628 169.578051,307.516922 C211.762847,273.660216 298.046823,280.439707 331.636334,307.516922 C365.225844,334.594137 413.026912,416.227285 486.319721,403.831319 C493.077987,402.688297 499.580844,401.440734 505.828291,400.088629 C526.14497,323.020554 605.024069,275.224003 719.970044,275.224003 Z" id="Combined-Shape" fill="url(#linearGradient-5)"></path>
            <rect id="Rectangle" fill="url(#linearGradient-6)" x="0" y="756.581999" width="1440" height="1053.418"></rect>
        </g>
    </g>
</svg>