<?xml version="1.0" encoding="UTF-8"?>
<svg width="1920px" height="593px" viewBox="0 0 1920 593" version="1.1" xmlns="http://www.w3.org/2000/svg" xmlns:xlink="http://www.w3.org/1999/xlink">
    <title>mars bg</title>
    <defs>
        <rect id="path-1" x="0" y="0" width="1920" height="593"></rect>
        <linearGradient x1="50%" y1="0%" x2="50%" y2="100%" id="linearGradient-3">
            <stop stop-color="#FFF9F9" offset="0%"></stop>
            <stop stop-color="#FFBAC3" offset="100%"></stop>
        </linearGradient>
        <linearGradient x1="50%" y1="139.86585%" x2="50%" y2="-43.3505604%" id="linearGradient-4">
            <stop stop-color="#FBDEE1" offset="0%"></stop>
            <stop stop-color="#FFDFE4" offset="100%"></stop>
        </linearGradient>
        <linearGradient x1="50%" y1="0%" x2="50%" y2="100%" id="linearGradient-5">
            <stop stop-color="#FFCDD5" offset="0.136582168%"></stop>
            <stop stop-color="#FF7A8E" offset="98.3173077%"></stop>
        </linearGradient>
        <linearGradient x1="50%" y1="1.55703671%" x2="50%" y2="100%" id="linearGradient-6">
            <stop stop-color="#CD677D" offset="0%"></stop>
            <stop stop-color="#F9B7C2" offset="100%"></stop>
        </linearGradient>
        <linearGradient x1="50%" y1="1.55703671%" x2="50%" y2="100%" id="linearGradient-7">
            <stop stop-color="#DC6E86" offset="0%"></stop>
            <stop stop-color="#FFC9D2" offset="100%"></stop>
        </linearGradient>
        <linearGradient x1="50%" y1="1.55703671%" x2="50%" y2="100%" id="linearGradient-8">
            <stop stop-color="#DC6E86" offset="0%"></stop>
            <stop stop-color="#FFC9D2" offset="100%"></stop>
        </linearGradient>
        <linearGradient x1="50%" y1="1.55703671%" x2="50%" y2="100%" id="linearGradient-9">
            <stop stop-color="#DC6E86" offset="0%"></stop>
            <stop stop-color="#FFC9D2" offset="100%"></stop>
        </linearGradient>
        <linearGradient x1="50%" y1="0%" x2="50%" y2="100%" id="linearGradient-10">
            <stop stop-color="#FFB9C4" offset="0%"></stop>
            <stop stop-color="#F38E9D" offset="100%"></stop>
        </linearGradient>
        <linearGradient x1="42.4016195%" y1="47.277314%" x2="46.4423257%" y2="52.1785871%" id="linearGradient-11">
            <stop stop-color="#EB94A6" offset="0%"></stop>
            <stop stop-color="#9C3F2A" offset="100%"></stop>
        </linearGradient>
        <ellipse id="path-12" cx="494.52" cy="428.238" rx="57" ry="21.5"></ellipse>
        <filter x="-3.9%" y="-10.5%" width="107.9%" height="120.9%" filterUnits="objectBoundingBox" id="filter-13">
            <feOffset dx="0" dy="9" in="SourceAlpha" result="shadowOffsetInner1"></feOffset>
            <feComposite in="shadowOffsetInner1" in2="SourceAlpha" operator="arithmetic" k2="-1" k3="1" result="shadowInnerInner1"></feComposite>
            <feColorMatrix values="0 0 0 0 0.695086051   0 0 0 0 0.306060375   0 0 0 0 0.365640884  0 0 0 0.2 0" type="matrix" in="shadowInnerInner1"></feColorMatrix>
        </filter>
        <ellipse id="path-14" cx="812.52" cy="476.238" rx="57" ry="21.5"></ellipse>
        <filter x="-3.9%" y="-10.5%" width="107.9%" height="120.9%" filterUnits="objectBoundingBox" id="filter-15">
            <feOffset dx="0" dy="9" in="SourceAlpha" result="shadowOffsetInner1"></feOffset>
            <feComposite in="shadowOffsetInner1" in2="SourceAlpha" operator="arithmetic" k2="-1" k3="1" result="shadowInnerInner1"></feComposite>
            <feColorMatrix values="0 0 0 0 0.695086051   0 0 0 0 0.306060375   0 0 0 0 0.365640884  0 0 0 0.2 0" type="matrix" in="shadowInnerInner1"></feColorMatrix>
        </filter>
        <ellipse id="path-16" cx="206.52" cy="501.238" rx="57" ry="21.5"></ellipse>
        <filter x="-3.9%" y="-10.5%" width="107.9%" height="120.9%" filterUnits="objectBoundingBox" id="filter-17">
            <feOffset dx="0" dy="9" in="SourceAlpha" result="shadowOffsetInner1"></feOffset>
            <feComposite in="shadowOffsetInner1" in2="SourceAlpha" operator="arithmetic" k2="-1" k3="1" result="shadowInnerInner1"></feComposite>
            <feColorMatrix values="0 0 0 0 0.695086051   0 0 0 0 0.306060375   0 0 0 0 0.365640884  0 0 0 0.2 0" type="matrix" in="shadowInnerInner1"></feColorMatrix>
        </filter>
        <ellipse id="path-18" cx="1335.52" cy="428.238" rx="57" ry="21.5"></ellipse>
        <filter x="-3.9%" y="-10.5%" width="107.9%" height="120.9%" filterUnits="objectBoundingBox" id="filter-19">
            <feOffset dx="0" dy="9" in="SourceAlpha" result="shadowOffsetInner1"></feOffset>
            <feComposite in="shadowOffsetInner1" in2="SourceAlpha" operator="arithmetic" k2="-1" k3="1" result="shadowInnerInner1"></feComposite>
            <feColorMatrix values="0 0 0 0 0.695086051   0 0 0 0 0.306060375   0 0 0 0 0.365640884  0 0 0 0.2 0" type="matrix" in="shadowInnerInner1"></feColorMatrix>
        </filter>
        <ellipse id="path-20" cx="1711.52" cy="467.238" rx="57" ry="21.5"></ellipse>
        <filter x="-3.9%" y="-10.5%" width="107.9%" height="120.9%" filterUnits="objectBoundingBox" id="filter-21">
            <feOffset dx="0" dy="9" in="SourceAlpha" result="shadowOffsetInner1"></feOffset>
            <feComposite in="shadowOffsetInner1" in2="SourceAlpha" operator="arithmetic" k2="-1" k3="1" result="shadowInnerInner1"></feComposite>
            <feColorMatrix values="0 0 0 0 0.695086051   0 0 0 0 0.306060375   0 0 0 0 0.365640884  0 0 0 0.2 0" type="matrix" in="shadowInnerInner1"></feColorMatrix>
        </filter>
        <ellipse id="path-22" cx="1493.52" cy="504.738" rx="40" ry="15"></ellipse>
        <filter x="-3.8%" y="-10.0%" width="107.5%" height="120.0%" filterUnits="objectBoundingBox" id="filter-23">
            <feOffset dx="0" dy="6" in="SourceAlpha" result="shadowOffsetInner1"></feOffset>
            <feComposite in="shadowOffsetInner1" in2="SourceAlpha" operator="arithmetic" k2="-1" k3="1" result="shadowInnerInner1"></feComposite>
            <feColorMatrix values="0 0 0 0 0.695086051   0 0 0 0 0.306060375   0 0 0 0 0.365640884  0 0 0 0.2 0" type="matrix" in="shadowInnerInner1"></feColorMatrix>
        </filter>
        <ellipse id="path-24" cx="1074.52" cy="454.738" rx="40" ry="15"></ellipse>
        <filter x="-3.8%" y="-10.0%" width="107.5%" height="120.0%" filterUnits="objectBoundingBox" id="filter-25">
            <feOffset dx="0" dy="6" in="SourceAlpha" result="shadowOffsetInner1"></feOffset>
            <feComposite in="shadowOffsetInner1" in2="SourceAlpha" operator="arithmetic" k2="-1" k3="1" result="shadowInnerInner1"></feComposite>
            <feColorMatrix values="0 0 0 0 0.695086051   0 0 0 0 0.306060375   0 0 0 0 0.365640884  0 0 0 0.2 0" type="matrix" in="shadowInnerInner1"></feColorMatrix>
        </filter>
        <ellipse id="path-26" cx="89.52" cy="446.738" rx="40" ry="15"></ellipse>
        <filter x="-3.8%" y="-10.0%" width="107.5%" height="120.0%" filterUnits="objectBoundingBox" id="filter-27">
            <feOffset dx="0" dy="6" in="SourceAlpha" result="shadowOffsetInner1"></feOffset>
            <feComposite in="shadowOffsetInner1" in2="SourceAlpha" operator="arithmetic" k2="-1" k3="1" result="shadowInnerInner1"></feComposite>
            <feColorMatrix values="0 0 0 0 0.695086051   0 0 0 0 0.306060375   0 0 0 0 0.365640884  0 0 0 0.2 0" type="matrix" in="shadowInnerInner1"></feColorMatrix>
        </filter>
        <ellipse id="path-28" cx="702.52" cy="513.238" rx="28" ry="10.5"></ellipse>
        <filter x="-5.4%" y="-14.3%" width="110.7%" height="128.6%" filterUnits="objectBoundingBox" id="filter-29">
            <feOffset dx="0" dy="6" in="SourceAlpha" result="shadowOffsetInner1"></feOffset>
            <feComposite in="shadowOffsetInner1" in2="SourceAlpha" operator="arithmetic" k2="-1" k3="1" result="shadowInnerInner1"></feComposite>
            <feColorMatrix values="0 0 0 0 0.695086051   0 0 0 0 0.306060375   0 0 0 0 0.365640884  0 0 0 0.2 0" type="matrix" in="shadowInnerInner1"></feColorMatrix>
        </filter>
        <ellipse id="path-30" cx="623.52" cy="418.238" rx="28" ry="10.5"></ellipse>
        <filter x="-5.4%" y="-14.3%" width="110.7%" height="128.6%" filterUnits="objectBoundingBox" id="filter-31">
            <feOffset dx="0" dy="6" in="SourceAlpha" result="shadowOffsetInner1"></feOffset>
            <feComposite in="shadowOffsetInner1" in2="SourceAlpha" operator="arithmetic" k2="-1" k3="1" result="shadowInnerInner1"></feComposite>
            <feColorMatrix values="0 0 0 0 0.695086051   0 0 0 0 0.306060375   0 0 0 0 0.365640884  0 0 0 0.2 0" type="matrix" in="shadowInnerInner1"></feColorMatrix>
        </filter>
        <ellipse id="path-32" cx="1278.52" cy="476.238" rx="28" ry="10.5"></ellipse>
        <filter x="-5.4%" y="-14.3%" width="110.7%" height="128.6%" filterUnits="objectBoundingBox" id="filter-33">
            <feOffset dx="0" dy="6" in="SourceAlpha" result="shadowOffsetInner1"></feOffset>
            <feComposite in="shadowOffsetInner1" in2="SourceAlpha" operator="arithmetic" k2="-1" k3="1" result="shadowInnerInner1"></feComposite>
            <feColorMatrix values="0 0 0 0 0.695086051   0 0 0 0 0.306060375   0 0 0 0 0.365640884  0 0 0 0.2 0" type="matrix" in="shadowInnerInner1"></feColorMatrix>
        </filter>
        <ellipse id="path-34" cx="1863.52" cy="432.238" rx="28" ry="10.5"></ellipse>
        <filter x="-5.4%" y="-14.3%" width="110.7%" height="128.6%" filterUnits="objectBoundingBox" id="filter-35">
            <feOffset dx="0" dy="6" in="SourceAlpha" result="shadowOffsetInner1"></feOffset>
            <feComposite in="shadowOffsetInner1" in2="SourceAlpha" operator="arithmetic" k2="-1" k3="1" result="shadowInnerInner1"></feComposite>
            <feColorMatrix values="0 0 0 0 0.695086051   0 0 0 0 0.306060375   0 0 0 0 0.365640884  0 0 0 0.2 0" type="matrix" in="shadowInnerInner1"></feColorMatrix>
        </filter>
        <ellipse id="path-36" cx="1835.52" cy="520.238" rx="28" ry="10.5"></ellipse>
        <filter x="-5.4%" y="-14.3%" width="110.7%" height="128.6%" filterUnits="objectBoundingBox" id="filter-37">
            <feOffset dx="0" dy="6" in="SourceAlpha" result="shadowOffsetInner1"></feOffset>
            <feComposite in="shadowOffsetInner1" in2="SourceAlpha" operator="arithmetic" k2="-1" k3="1" result="shadowInnerInner1"></feComposite>
            <feColorMatrix values="0 0 0 0 0.695086051   0 0 0 0 0.306060375   0 0 0 0 0.365640884  0 0 0 0.2 0" type="matrix" in="shadowInnerInner1"></feColorMatrix>
        </filter>
        <ellipse id="path-38" cx="387.52" cy="480.238" rx="28" ry="10.5"></ellipse>
        <filter x="-5.4%" y="-14.3%" width="110.7%" height="128.6%" filterUnits="objectBoundingBox" id="filter-39">
            <feOffset dx="0" dy="6" in="SourceAlpha" result="shadowOffsetInner1"></feOffset>
            <feComposite in="shadowOffsetInner1" in2="SourceAlpha" operator="arithmetic" k2="-1" k3="1" result="shadowInnerInner1"></feComposite>
            <feColorMatrix values="0 0 0 0 0.695086051   0 0 0 0 0.306060375   0 0 0 0 0.365640884  0 0 0 0.2 0" type="matrix" in="shadowInnerInner1"></feColorMatrix>
        </filter>
        <ellipse id="path-40" cx="201.52" cy="449.238" rx="28" ry="10.5"></ellipse>
        <filter x="-5.4%" y="-14.3%" width="110.7%" height="128.6%" filterUnits="objectBoundingBox" id="filter-41">
            <feOffset dx="0" dy="6" in="SourceAlpha" result="shadowOffsetInner1"></feOffset>
            <feComposite in="shadowOffsetInner1" in2="SourceAlpha" operator="arithmetic" k2="-1" k3="1" result="shadowInnerInner1"></feComposite>
            <feColorMatrix values="0 0 0 0 0.695086051   0 0 0 0 0.306060375   0 0 0 0 0.365640884  0 0 0 0.2 0" type="matrix" in="shadowInnerInner1"></feColorMatrix>
        </filter>
    </defs>
    <g id="Page-1" stroke="none" stroke-width="1" fill="none" fill-rule="evenodd">
        <g id="mars-bg">
            <mask id="mask-2" fill="white">
                <use xlink:href="#path-1"></use>
            </mask>
            <use id="Mask" fill="#FFF9F9" xlink:href="#path-1"></use>
            <g mask="url(#mask-2)">
                <g transform="translate(-11.520000, 0.262000)">
                    <rect id="Rectangle" fill="url(#linearGradient-3)" fill-rule="nonzero" x="8.52" y="9.738" width="1928" height="340"></rect>
                    <path d="M1263.0982,202.653003 C1257.03637,196.298588 1250.49361,190.402904 1243.52,185.036755 C1270.96355,183.924832 1440.10805,182.238 1519.60306,182.238 C1629.36293,182.238 1914.1962,168.175417 1931.52,160.738 L1931.52,197.773506 C1905.39903,202.030725 1327.66418,203.738 1301.18251,203.738 C1288.47772,203.738 1275.77293,203.345087 1263.0982,202.653003 Z M877.201956,139.170029 C879.719559,131.178132 885.351671,124.203259 892.65252,120.038636 C837.337242,112.525397 780.826153,105.096745 725.083942,105.096745 C692.892018,105.096745 42.830063,113.671788 11.52,120.038636 L11.52,95.9017346 C46.4084987,92.3580732 699.598961,90.738 734.661432,90.738 C784.485576,90.738 834.340714,94.0070052 883.849908,99.6722858 C893.795339,100.810716 904.957579,102.755202 910.601689,110.982944 C915.665891,118.364826 910.300737,131.140317 902.387984,131.141312 C902.313996,131.141312 902.240008,131.140317 902.166019,131.137332 C959.074046,142.740559 1016.20404,153.245161 1073.52,162.647159 C1065.20331,166.062448 1057.21357,170.114622 1049.61877,174.738 C991.822882,164.526961 934.31395,152.664005 877.201956,139.170029 Z" id="Fill-11" fill="url(#linearGradient-4)" fill-rule="evenodd"></path>
                    <circle id="Oval" fill="url(#linearGradient-5)" fill-rule="evenodd" cx="1136.82" cy="317.988" r="171"></circle>
                    <path d="M1102.428,11.466 C1102.428,12.061 1101.945,12.544 1101.351,12.544 C1100.756,12.544 1100.274,12.061 1100.274,11.466 C1100.274,10.872 1100.756,10.389 1101.351,10.389 C1101.945,10.389 1102.428,10.872 1102.428,11.466" id="Fill-15" fill="#FFFFFE" fill-rule="evenodd"></path>
                    <path d="M1224.06,42.255 C1224.06,42.5 1223.86,42.698 1223.62,42.698 C1223.37,42.698 1223.17,42.5 1223.17,42.255 C1223.17,42.009 1223.37,41.811 1223.62,41.811 C1223.86,41.811 1224.06,42.009 1224.06,42.255" id="Fill-16" fill="#FFFFFE" fill-rule="evenodd"></path>
                    <path d="M1137.02,33.829 C1137.02,34.039 1136.85,34.209 1136.64,34.209 C1136.43,34.209 1136.26,34.039 1136.26,33.829 C1136.26,33.619 1136.43,33.449 1136.64,33.449 C1136.85,33.449 1137.02,33.619 1137.02,33.829" id="Fill-17" fill="#FFFFFE" fill-rule="evenodd"></path>
                    <path d="M1013.864,78.173 C1013.864,78.524 1013.581,78.807 1013.231,78.807 C1012.881,78.807 1012.598,78.524 1012.598,78.173 C1012.598,77.824 1012.881,77.541 1013.231,77.541 C1013.581,77.541 1013.864,77.824 1013.864,78.173" id="Fill-18" fill="#FFFFFE" fill-rule="evenodd"></path>
                    <path d="M993.339,22.679 C993.339,23.17 992.943,23.566 992.452,23.566 C991.962,23.566 991.566,23.17 991.566,22.679 C991.566,22.189 991.962,21.793 992.452,21.793 C992.943,21.793 993.339,22.189 993.339,22.679" id="Fill-19" fill="#FFFFFE" fill-rule="evenodd"></path>
                    <path d="M841.173,79.378 C841.173,79.692 840.917,79.948 840.603,79.948 C840.287,79.948 840.032,79.692 840.032,79.378 C840.032,79.063 840.287,78.807 840.603,78.807 C840.917,78.807 841.173,79.063 841.173,79.378" id="Fill-20" fill="#FFFFFE" fill-rule="evenodd"></path>
                    <path d="M774.781,23.25 C774.781,24.054 774.129,24.707 773.324,24.707 C772.52,24.707 771.867,24.054 771.867,23.25 C771.867,22.445 772.52,21.793 773.324,21.793 C774.129,21.793 774.781,22.445 774.781,23.25" id="Fill-21" fill="#FFFFFE" fill-rule="evenodd"></path>
                    <path d="M664.173,70.445 C664.173,70.865 663.832,71.206 663.412,71.206 C662.992,71.206 662.653,70.865 662.653,70.445 C662.653,70.025 662.992,69.685 663.412,69.685 C663.832,69.685 664.173,70.025 664.173,70.445" id="Fill-22" fill="#FFFFFE" fill-rule="evenodd"></path>
                    <path d="M639.086,11.53 C639.086,12.16 638.575,12.67 637.945,12.67 C637.316,12.67 636.806,12.16 636.806,11.53 C636.806,10.9 637.316,10.389 637.945,10.389 C638.575,10.389 639.086,10.9 639.086,11.53" id="Fill-23" fill="#FFFFFE" fill-rule="evenodd"></path>
                    <path d="M1190.93,13.145 C1190.93,13.477 1190.66,13.747 1190.33,13.747 C1189.99,13.747 1189.72,13.477 1189.72,13.145 C1189.72,12.813 1189.99,12.544 1190.33,12.544 C1190.66,12.544 1190.93,12.813 1190.93,13.145" id="Fill-24" fill="#FFFFFE" fill-rule="evenodd"></path>
                    <path d="M1240.02,0.697 C1240.02,1.082 1239.71,1.393 1239.33,1.393 C1238.94,1.393 1238.63,1.082 1238.63,0.697 C1238.63,0.312 1238.94,0 1239.33,0 C1239.71,0 1240.02,0.312 1240.02,0.697" id="Fill-25" fill="#FFFFFE" fill-rule="evenodd"></path>
                    <path d="M1341.51,71.839 C1341.51,72.329 1341.11,72.726 1340.62,72.726 C1340.13,72.726 1339.74,72.329 1339.74,71.839 C1339.74,71.349 1340.13,70.952 1340.62,70.952 C1341.11,70.952 1341.51,71.349 1341.51,71.839" id="Fill-26" fill="#FFFFFE" fill-rule="evenodd"></path>
                    <path d="M1355.7,27.367 C1355.7,27.367 1355.36,27.367 1354.94,27.367 C1354.52,27.367 1354.18,27.367 1354.18,27.367 C1354.18,27.367 1354.52,27.367 1354.94,27.367 C1355.36,27.367 1355.7,27.367 1355.7,27.367" id="Fill-27" fill="#FFFFFE" fill-rule="evenodd"></path>
                    <path d="M1197.45,140.194 C1197.45,140.648 1197.08,141.017 1196.63,141.017 C1196.18,141.017 1195.81,140.648 1195.81,140.194 C1195.81,139.739 1196.18,139.37 1196.63,139.37 C1197.08,139.37 1197.45,139.739 1197.45,140.194" id="Fill-28" fill="#FFFFFE" fill-rule="evenodd"></path>
                    <path d="M1031.159,141.682 C1031.159,142.05 1030.862,142.347 1030.494,142.347 C1030.127,142.347 1029.829,142.05 1029.829,141.682 C1029.829,141.315 1030.127,141.017 1030.494,141.017 C1030.862,141.017 1031.159,141.315 1031.159,141.682" id="Fill-29" fill="#FFFFFE" fill-rule="evenodd"></path>
                    <line x1="946.967" y1="214.377" x2="946.967" y2="214.377" id="Fill-30" fill="#FFFFFE" fill-rule="evenodd"></line>
                    <path d="M811.398,155.208 C811.398,155.697 811.001,156.094 810.511,156.094 C810.022,156.094 809.624,155.697 809.624,155.208 C809.624,154.717 810.022,154.32 810.511,154.32 C811.001,154.32 811.398,154.717 811.398,155.208" id="Fill-31" fill="#FFFFFE" fill-rule="evenodd"></path>
                    <line x1="686.979" y1="128.98" x2="686.979" y2="128.98" id="Fill-32" fill="#FFFFFE" fill-rule="evenodd"></line>
                    <path d="M657.331,172.058 C657.331,172.759 656.764,173.326 656.064,173.326 C655.364,173.326 654.797,172.759 654.797,172.058 C654.797,171.359 655.364,170.792 656.064,170.792 C656.764,170.792 657.331,171.359 657.331,172.058" id="Fill-33" fill="#FFFFFE" fill-rule="evenodd"></path>
                    <path d="M634.924,147.894 C634.924,148.425 634.494,148.854 633.964,148.854 C633.434,148.854 633.004,148.425 633.004,147.894 C633.004,147.364 633.434,146.934 633.964,146.934 C634.494,146.934 634.924,147.364 634.924,147.894" id="Fill-34" fill="#FFFFFE" fill-rule="evenodd"></path>
                    <path d="M55.186576,270.268815 L95.1575748,259.456914 L106.399701,259.456914 L138.875675,244.530766 L182.593775,234.648 L228.810217,251.178705 L262.534951,270.268815 L298.758848,270.268815 C298.758848,270.268815 327.512368,276.784754 336.243829,276.784754 C344.97529,276.784754 422.418946,308.060752 422.418946,308.060752 L447.40236,300.917389 L474.883295,271.354805 L501.11547,271.354805 L533.591444,265.056577 L569.517939,284.168972 L594.797113,295.028872 C602.289672,305.454205 502.36423,327.648 498.609734,327.648 C494.863454,327.648 156.362422,327.648 156.362422,327.648 L40.1981704,306.757907 L55.186576,270.268815" id="Fill-35" fill="url(#linearGradient-6)" fill-rule="evenodd" transform="translate(317.698170, 281.148000) scale(-1, 1) translate(-317.698170, -281.148000) "></path>
                    <path d="M510.391804,276.206 L588.245226,263.592 L610.142052,263.592 L673.397058,246.178 L758.548889,234.648 L848.566859,253.934 L914.254134,276.206 L984.809148,276.206 C984.809148,276.206 1040.81375,283.808 1057.82043,283.808 C1074.82712,283.808 1225.66782,320.297 1225.66782,320.297 L1274.32921,311.963 L1327.85514,277.473 L1378.9488,277.473 L1442.20381,270.125 L1512.17956,292.423 L1561.41701,305.093 C1576.01063,317.256 1381.38107,343.149 1374.06826,343.149 C1366.77145,343.149 707.45683,343.149 707.45683,343.149 L481.19817,318.777 L510.391804,276.206" id="Fill-35" fill="url(#linearGradient-7)" fill-rule="evenodd"></path>
                    <path d="M1208.3,263.592 C1211.05,263.592 1214.06,263.623 1217,263.668 L1216.99873,264.000219 C1219.92749,263.915875 1226.88366,263.728664 1233.76815,263.64029 L1234.77464,263.628087 C1236.61721,263.607093 1238.44022,263.593921 1240.16452,263.592468 L1241.10671,263.592881 C1246.07286,263.601707 1250.0552,263.71852 1251.028,264.043 C1254.068,265.056 1263.198,266.07 1268.268,270.125 C1273.01175,273.924688 1292.90784,274.162168 1295.37633,274.17701 L1295.62079,274.177995 C1295.628,274.178 1295.67179,274.207192 1295.75689,274.263935 L1295.98142,274.413668 C1296.07412,274.475499 1296.18445,274.549088 1296.31166,274.633949 L1296.74318,274.921859 C1297.45066,275.39394 1298.47284,276.076281 1299.74621,276.927 L1300.30713,277.301781 C1305.01054,280.444687 1312.67968,285.576939 1320.5905,290.902875 L1322.1285,291.938726 L1323.66814,292.976525 L1324.96171,293.84916 C1325.10524,293.946017 1325.24868,294.042829 1325.39201,294.139585 L1326.25068,294.719368 L1326.25068,294.719368 L1327.10613,295.297298 C1337.63354,302.41157 1347.24748,308.98568 1349.348,310.669 C1354.418,314.722 1394.968,314.722 1400.028,310.669 C1405.098,306.614 1426.388,301.546 1429.428,301.546 C1430.87005,301.546 1441.66379,300.633783 1453.0449,299.674786 L1453.96881,299.596944 C1454.27709,299.570974 1454.58563,299.544987 1454.89425,299.519 L1456.33855,299.397445 C1457.46134,299.303003 1458.58166,299.208914 1459.69115,299.116002 L1460.63931,299.036671 C1460.79682,299.023504 1460.95407,299.010365 1461.11103,298.997258 L1462.04904,298.919008 C1471.39,298.14064 1479.498,297.492 1481.118,297.492 C1485.178,297.492 1509.501,293.437 1514.568,292.423 C1516.55113,292.026609 1520.86228,290.698947 1525.37587,289.22953 L1526.12965,288.983451 L1526.46949,288.872075 L1526.46949,288.872075 L1527.14932,288.648517 C1527.37583,288.573869 1527.60215,288.499123 1527.82802,288.42438 L1528.50401,288.200254 C1534.23379,286.296917 1539.496,284.459046 1539.88499,284.323049 L1539.908,284.315 L1577.412,270.125 L1626.064,281.274 L1630.51119,283.085311 C1653.54602,279.707113 1668.7193,274.511776 1681.31891,275.757305 C1695.81803,277.190609 1708.384,273.53279 1708.384,273.53279 C1708.384,273.53279 1720.45357,282.517427 1732.75184,291.712845 L1734.17121,292.774291 C1745.05052,300.91156 1755.7524,308.9497 1758.08,310.815 C1760.62,312.842 1772.02,313.855 1783.42,313.855 C1794.83,313.855 1806.23,312.842 1808.76,310.815 C1813.83,306.76 1835.12,301.692 1838.16,301.692 C1839.68,301.692 1851.59,300.6785 1863.62625,299.665 L1865.07055,299.543445 C1876.61928,298.572042 1887.906,297.638 1889.85,297.638 C1893.91,297.638 1918.233,293.583 1923.3,292.569 C1925.28313,292.172609 1929.59428,290.844947 1934.10787,289.37553 L1934.86165,289.129451 C1941.65593,286.905355 1948.64,284.461 1948.64,284.461 L1948.64,284.461 L1986.144,270.271 L2034.796,281.42 L2062.163,292.569 C2062.163,292.569 2065.768,293.02 2069.071,293.02 C2070.723,293.02 2072.3,292.907 2073.313,292.569 C2074.327,292.231 2076.579,292.119 2079.132,292.119 L2079.4168,292.119457 C2084.46843,292.135512 2090.544,292.569 2090.544,292.569 L2090.544,292.569 L2116.029,302.763 C2111.91,303.749 2108.813,304.473 2107.776,304.733 C2105.86114,305.211361 2100.55588,307.497979 2094.9557,309.778384 L2093.965,310.180375 L2093.965,310.180375 L2092.97196,310.580021 C2087.34523,312.83385 2081.78775,314.868 2079.395,314.868 C2076.93755,314.868 2070.6676,315.583107 2064.28263,315.973166 L2063.32448,316.029107 C2061.24863,316.144467 2059.18016,316.22 2057.246,316.22 C2053.153,316.22 2049.663,315.882 2047.973,314.868 C2046.311,313.871 2044.649,313.492 2043.023,313.492 C2039.69,313.492 2036.508,315.085 2033.782,316.22 C2031.85469,317.022967 2027.17836,319.5059 2022.36673,321.998926 L2021.37015,322.514321 C2016.38615,325.086537 2011.45026,327.546311 2009.456,328.045 C2005.402,329.059 1962.51228,343.149 1959.47128,343.149 C1959.44087,343.149 1959.40522,343.149015 1959.36444,343.149044 L1958.86179,343.149682 C1955.82615,343.154504 1943.90117,343.184161 1931.65925,343.215438 L1929.94988,343.21981 C1916.55722,343.254107 1903.26226,343.289048 1901.25916,343.294318 L1901.01652,343.294956 L1901.01652,343.294956 L1901,343.295 L1734.083,343.295 L1737.56,360.335 L1191.228,354.253 L1191.914,343.149 L956.52,343.149 C956.52,343.149 947.510904,341.953104 937.862773,340.718043 L937.068509,340.616467 L937.068509,340.616467 L936.272399,340.514857 C936.139618,340.497927 936.006803,340.481002 935.873976,340.464084 L935.077035,340.362691 L935.077035,340.362691 L933.875833,340.210303 C924.881993,339.071383 916.32945,338.036 914.961,338.036 C911.92,338.036 852.118,328.913 848.064,327.899 C846.223142,327.438672 841.875809,325.30736 837.297833,322.959072 L836.533092,322.565931 C836.405409,322.500156 836.277646,322.434275 836.149851,322.368321 L835.153268,321.852926 C830.341637,319.3599 825.665311,316.876967 823.738,316.074 C821.012,314.939 817.83,313.346 814.497,313.346 C812.871,313.346 811.209,313.725 809.547,314.722 C807.857,315.736 804.367,316.074 800.274,316.074 C798.339836,316.074 796.271367,315.998467 794.195518,315.883107 L793.237373,315.827166 C786.852405,315.437107 780.582455,314.722 778.125,314.722 C773.058,314.722 753.799,305.6 749.744,304.587 C748.707,304.327 745.61,303.603 741.491,302.617 L766.976,292.423 C766.976,292.423 773.05157,291.989512 778.1032,291.973457 L778.388,291.973 C780.941,291.973 783.193,292.085 784.207,292.423 C785.22,292.761 786.797,292.874 788.449,292.874 C791.752,292.874 795.357,292.423 795.357,292.423 L822.724,281.274 L871.376,270.125 L908.88,284.315 C908.88,284.315 914.329513,286.222276 920.283995,288.200254 L920.959978,288.42438 C921.185848,288.499123 921.412172,288.573869 921.638682,288.648517 L922.318513,288.872075 C922.431823,288.909253 922.545114,288.946382 922.658352,288.983451 L923.412127,289.22953 C927.925716,290.698947 932.23687,292.026609 934.22,292.423 C935.783889,292.735963 939.182102,293.338611 943.252733,294.022314 L944.242,294.187852 C945.957979,294.473933 947.772046,294.770909 949.603281,295.064251 L950.519955,295.210551 C950.978633,295.283483 951.437541,295.356036 951.895414,295.427983 L952.809407,295.571004 C959.496418,296.612912 965.77963,297.492 967.67,297.492 C969.29,297.492 977.398,298.14064 986.73896,298.919008 L987.676971,298.997258 C987.833927,299.010365 987.991176,299.023504 988.148694,299.036671 L989.096846,299.116002 C990.206341,299.208914 991.326658,299.303003 992.449451,299.397445 L993.89375,299.519 C994.202372,299.544987 994.510911,299.570974 994.819193,299.596944 L995.743101,299.674786 C1007.12421,300.633783 1017.91795,301.546 1019.36,301.546 C1022.4,301.546 1043.69,306.614 1048.76,310.669 C1051.29,312.696 1062.69,313.709 1074.1,313.709 C1085.5,313.709 1096.9,312.696 1099.44,310.669 C1101.54052,308.98568 1111.15446,302.41157 1121.68187,295.297298 L1122.53732,294.719368 L1122.53732,294.719368 L1123.39599,294.139585 C1123.53932,294.042829 1123.68276,293.946017 1123.82629,293.84916 L1125.11986,292.976525 L1125.11986,292.976525 L1126.6595,291.938726 L1128.1975,290.902875 C1136.10832,285.576939 1143.77746,280.444687 1148.48087,277.301781 L1149.04179,276.927 C1150.31516,276.076281 1151.33734,275.39394 1152.04482,274.921859 L1152.47634,274.633949 C1152.60355,274.549088 1152.71388,274.475499 1152.80658,274.413668 L1153.03111,274.263935 C1153.11621,274.207192 1153.16,274.178 1153.16,274.178 L1153.16721,274.177995 L1153.41167,274.17701 C1155.88016,274.162168 1175.77625,273.924688 1180.52,270.125 C1185.59,266.07 1194.72,265.056 1197.76,264.043 C1198.7195,263.7219 1202.63018,263.603863 1207.52006,263.592862 L1208.3,263.592 Z" id="Combined-Shape" fill="url(#linearGradient-8)" fill-rule="evenodd"></path>
                    <path d="M796.52,343.149 L8.52,343.149 L8.52,236.403 C31.0581561,239.127 71.8058415,244.262 75.3312013,246.178 C80.2264611,248.839 109.5948,268.097 109.5948,268.097 L156.913499,292.423 L202.598298,288.369 L261.338196,280.26 C261.338196,280.26 346.183464,291.41 351.078723,292.423 C351.646966,292.541 352.524282,292.591 353.64467,292.591 C356.537397,292.591 361.049535,292.261 366.026893,291.93 C371.00425,291.601 376.448435,291.271 381.206866,291.271 C385.688419,291.271 389.561486,291.563 391.868262,292.423 C400.028102,295.464 457.13732,303.573 463.66165,304.587 C470.1892,305.6 501.191439,314.722 509.348059,314.722 C514.787415,314.722 531.829873,316.074 545.002485,316.074 C551.591205,316.074 557.209244,315.736 559.929727,314.722 C562.605137,313.725 565.280547,313.346 567.898006,313.346 C573.263314,313.346 578.385549,314.939 582.773736,316.074 C589.299676,317.763 615.405046,326.885 621.932595,327.899 C628.458535,328.913 724.725002,338.036 729.620262,338.036 C734.515522,338.036 796.52,343.149 796.52,343.149" id="Fill-48" fill="url(#linearGradient-9)" fill-rule="evenodd"></path>
                    <polygon id="Fill-51" fill="url(#linearGradient-10)" fill-rule="evenodd" points="0 596.149 1937 596.149 1937 343.149 0 343.149"></polygon>
                    <polyline id="Clip-57" fill="none" points="1379 492.948 701.757 492.948 1379 485.179 1379 492.948"></polyline>
                    <polyline id="Fill-56" fill-opacity="0.2" fill="url(#linearGradient-11)" fill-rule="evenodd" points="1931.757 431.948 825.757 431.948 1931.757 409.948 1931.757 431.948"></polyline>
                    <path d="M629.004,363.04 L629.004,350.199 L1353.67,350.199 L1146.04,353.878 C1145.36,353.617 1144.7,353.213 1143.96,352.96 C1143.16,352.689 1142.31,352.61 1141.47,352.537 C1138.47,352.274 1135.46,352.051 1132.44,352.051 C1131.21,352.051 1129.97,352.088 1128.74,352.176 C1126.9,352.306 1124.29,352.296 1122.61,353.103 C1122.08,353.356 1121.99,353.803 1121.9,354.306 L629.004,363.04" id="Clip-60" fill="none"></path>
                    <g id="Oval" fill="none">
                        <use fill="#EB94A6" fill-rule="evenodd" xlink:href="#path-12"></use>
                        <use fill="black" fill-opacity="1" filter="url(#filter-13)" xlink:href="#path-12"></use>
                    </g>
                    <g id="Oval" fill="none">
                        <use fill="#EB94A6" fill-rule="evenodd" xlink:href="#path-14"></use>
                        <use fill="black" fill-opacity="1" filter="url(#filter-15)" xlink:href="#path-14"></use>
                    </g>
                    <g id="Oval" fill="none">
                        <use fill="#EB94A6" fill-rule="evenodd" xlink:href="#path-16"></use>
                        <use fill="black" fill-opacity="1" filter="url(#filter-17)" xlink:href="#path-16"></use>
                    </g>
                    <g id="Oval" fill="none">
                        <use fill="#EB94A6" fill-rule="evenodd" xlink:href="#path-18"></use>
                        <use fill="black" fill-opacity="1" filter="url(#filter-19)" xlink:href="#path-18"></use>
                    </g>
                    <g id="Oval" fill="none">
                        <use fill="#EB94A6" fill-rule="evenodd" xlink:href="#path-20"></use>
                        <use fill="black" fill-opacity="1" filter="url(#filter-21)" xlink:href="#path-20"></use>
                    </g>
                    <g id="Oval" fill="none">
                        <use fill="#EB94A6" fill-rule="evenodd" xlink:href="#path-22"></use>
                        <use fill="black" fill-opacity="1" filter="url(#filter-23)" xlink:href="#path-22"></use>
                    </g>
                    <g id="Oval" fill="none">
                        <use fill="#EB94A6" fill-rule="evenodd" xlink:href="#path-24"></use>
                        <use fill="black" fill-opacity="1" filter="url(#filter-25)" xlink:href="#path-24"></use>
                    </g>
                    <g id="Oval" fill="none">
                        <use fill="#EB94A6" fill-rule="evenodd" xlink:href="#path-26"></use>
                        <use fill="black" fill-opacity="1" filter="url(#filter-27)" xlink:href="#path-26"></use>
                    </g>
                    <g id="Oval" fill="none">
                        <use fill="#EB94A6" fill-rule="evenodd" xlink:href="#path-28"></use>
                        <use fill="black" fill-opacity="1" filter="url(#filter-29)" xlink:href="#path-28"></use>
                    </g>
                    <g id="Oval" fill="none">
                        <use fill="#EB94A6" fill-rule="evenodd" xlink:href="#path-30"></use>
                        <use fill="black" fill-opacity="1" filter="url(#filter-31)" xlink:href="#path-30"></use>
                    </g>
                    <g id="Oval" fill="none">
                        <use fill="#EB94A6" fill-rule="evenodd" xlink:href="#path-32"></use>
                        <use fill="black" fill-opacity="1" filter="url(#filter-33)" xlink:href="#path-32"></use>
                    </g>
                    <g id="Oval" fill="none">
                        <use fill="#EB94A6" fill-rule="evenodd" xlink:href="#path-34"></use>
                        <use fill="black" fill-opacity="1" filter="url(#filter-35)" xlink:href="#path-34"></use>
                    </g>
                    <g id="Oval" fill="none">
                        <use fill="#EB94A6" fill-rule="evenodd" xlink:href="#path-36"></use>
                        <use fill="black" fill-opacity="1" filter="url(#filter-37)" xlink:href="#path-36"></use>
                    </g>
                    <g id="Oval" fill="none">
                        <use fill="#EB94A6" fill-rule="evenodd" xlink:href="#path-38"></use>
                        <use fill="black" fill-opacity="1" filter="url(#filter-39)" xlink:href="#path-38"></use>
                    </g>
                    <g id="Oval" fill="none">
                        <use fill="#EB94A6" fill-rule="evenodd" xlink:href="#path-40"></use>
                        <use fill="black" fill-opacity="1" filter="url(#filter-41)" xlink:href="#path-40"></use>
                    </g>
                    <path d="M9.004,375.199 L9.004,350.199 L1412.004,350.199 L1010.01896,357.361604 C1008.70244,356.853466 1007.42464,356.066923 1005.99195,355.57436 C1004.4431,355.046753 1002.79744,354.892949 1001.17115,354.750826 C995.362954,354.238794 989.535401,353.804638 983.688486,353.804638 C981.307127,353.804638 978.906407,353.876673 976.525048,354.047999 C972.96269,354.301095 967.909562,354.281626 964.656974,355.852765 C963.63086,356.345328 963.456614,357.215587 963.282368,358.194873 L9.004,375.199" id="Fill-59" fill-opacity="0.2" fill="#FFFFFF" fill-rule="evenodd"></path>
                    <polyline id="Clip-63" fill="none" points="1379 384.407 775.922 373.511 1379 369.088 1379 384.407"></polyline>
                    <polyline id="Fill-62" fill-opacity="0.2" fill="#FFFFFF" fill-rule="evenodd" points="1931.922 396.407 775.922 375.068793 1931.922 366.407 1931.922 396.407"></polyline>
                </g>
            </g>
        </g>
    </g>
</svg>