<?xml version="1.0" encoding="UTF-8"?>
<svg width="1755px" height="1950px" viewBox="0 0 1755 1950" version="1.1" xmlns="http://www.w3.org/2000/svg" xmlns:xlink="http://www.w3.org/1999/xlink">
    <title>bg</title>
    <defs>
        <linearGradient x1="50%" y1="0%" x2="50%" y2="100%" id="linearGradient-1">
            <stop stop-color="#FCB1BD" offset="0%"></stop>
            <stop stop-color="#FFB5C0" offset="100%"></stop>
        </linearGradient>
        <linearGradient x1="50%" y1="0%" x2="50%" y2="100%" id="linearGradient-2">
            <stop stop-color="#FBA3B1" offset="0%"></stop>
            <stop stop-color="#FFAFBB" offset="100%"></stop>
        </linearGradient>
        <linearGradient x1="50%" y1="0%" x2="50%" y2="100%" id="linearGradient-3">
            <stop stop-color="#F896A6" offset="0%"></stop>
            <stop stop-color="#FEA5B2" offset="100%"></stop>
        </linearGradient>
        <linearGradient x1="50%" y1="0%" x2="50%" y2="100%" id="linearGradient-4">
            <stop stop-color="#FCB1BD" offset="0%"></stop>
            <stop stop-color="#FFB5C0" offset="100%"></stop>
        </linearGradient>
        <linearGradient x1="50%" y1="0%" x2="50%" y2="100%" id="linearGradient-5">
            <stop stop-color="#FBA3B1" offset="0%"></stop>
            <stop stop-color="#FFAFBB" offset="100%"></stop>
        </linearGradient>
        <linearGradient x1="50%" y1="0%" x2="50%" y2="100%" id="linearGradient-6">
            <stop stop-color="#F896A6" offset="0%"></stop>
            <stop stop-color="#FEA5B2" offset="100%"></stop>
        </linearGradient>
    </defs>
    <g id="Web" stroke="none" stroke-width="1" fill="none" fill-rule="evenodd">
        <g id="bg">
            <path d="M809.75296,386.116944 C811.506649,503.422964 636.989455,559.687432 557.048494,661.009115 C477.107532,762.330798 430.669084,875.094417 439.275357,935.76 C447.881631,996.425583 494.313237,1124.13415 599.360992,1192.56252 C704.408746,1260.99089 762.095626,1436 762.095626,1472 C762.095626,1496 554.652444,1503.1009 139.766079,1493.30271 L139.766079,376.279045 C585.254875,304.633631 808.583835,307.912931 809.75296,386.116944 Z" id="Path-6" fill="url(#linearGradient-1)" opacity="0.8"></path>
            <path d="M713.98602,196.396622 C715.854875,367.053871 529.876851,448.907635 444.686036,596.31081 C359.49522,743.713984 310.007082,907.762931 319.178544,996.019455 C328.350006,1084.27598 377.830851,1270.0669 489.777265,1369.61675 C601.723678,1469.1666 663.19895,1723.77053 663.19895,1776.14347 C663.19895,1811.05876 442.132633,1821.38918 4.54747351e-13,1807.13473 L4.54747351e-13,182.084409 C474.744776,77.8543855 712.740116,82.6251233 713.98602,196.396622 Z" id="Path-6" fill="url(#linearGradient-2)" opacity="0.8"></path>
            <path d="M565.989309,101.801524 C567.418434,296.86696 425.199945,390.427828 360.054027,558.913285 C294.908109,727.398743 257.064239,914.910727 264.07771,1015.79011 C271.091181,1116.66949 308.929475,1329.03308 394.535555,1442.82101 C480.141636,1556.60894 527.152138,1847.6275 527.152138,1907.49106 C527.152138,1947.4001 358.101425,1959.20803 20,1942.91483 L20,85.4423112 C383.040123,-33.6951716 565.036559,-28.2421008 565.989309,101.801524 Z" id="Path-6" fill="url(#linearGradient-3)" opacity="0.8"></path>
            <path d="M1585.22078,403.220131 C1586.97709,520.52615 1412.19942,576.790618 1332.13914,678.112301 C1252.07887,779.433984 1205.57111,892.197603 1214.19023,952.863187 C1222.80935,1013.52877 1269.31025,1141.23734 1374.5148,1209.66571 C1479.71934,1278.09407 1537.49232,1453.10319 1537.49232,1489.10319 C1537.49232,1513.10319 1329.73952,1520.20409 914.233921,1510.40589 L914.233921,393.382232 C1360.38762,321.736818 1584.04991,325.016118 1585.22078,403.220131 Z" id="Path-6" fill="url(#linearGradient-4)" opacity="0.8" transform="translate(1249.733921, 928.333341) scale(-1, 1) translate(-1249.733921, -928.333341) "></path>
            <path d="M1647.22173,196.396622 C1648.85101,367.053871 1486.71468,448.907635 1412.44501,596.31081 C1338.17534,743.713984 1295.0314,907.762931 1303.02711,996.019455 C1311.02283,1084.27598 1354.16041,1270.0669 1451.75571,1369.61675 C1549.35101,1469.1666 1602.94538,1723.77053 1602.94538,1776.14347 C1602.94538,1811.05876 1410.21894,1821.38918 1024.76608,1807.13473 L1024.76608,182.084409 C1438.65033,77.8543855 1646.13555,82.6251233 1647.22173,196.396622 Z" id="Path-6" fill="url(#linearGradient-5)" opacity="0.8" transform="translate(1336.000000, 960.333341) scale(-1, 1) translate(-1336.000000, -960.333341) "></path>
            <path d="M1754.22173,101.801524 C1755.85101,296.86696 1593.71468,390.427828 1519.44501,558.913285 C1445.17534,727.398743 1402.0314,914.910727 1410.02711,1015.79011 C1418.02283,1116.66949 1461.16041,1329.03308 1558.75571,1442.82101 C1656.35101,1556.60894 1709.94538,1847.6275 1709.94538,1907.49106 C1709.94538,1947.4001 1517.21894,1959.20803 1131.76608,1942.91483 L1131.76608,85.4423112 C1545.65033,-33.6951716 1753.13555,-28.2421008 1754.22173,101.801524 Z" id="Path-6" fill="url(#linearGradient-6)" opacity="0.8" transform="translate(1443.000000, 975.000000) scale(-1, 1) translate(-1443.000000, -975.000000) "></path>
            <path d="M692.723896,939.12 C706.601781,939.12 717.548375,944.539454 725.786095,954.929371 C732.096561,962.888517 736.307896,973.961317 736.307896,989.04 C736.307896,1003.70452 732.120994,1014.78606 725.541446,1023.02479 C718.848581,1031.40542 710.689935,1036.40249 701.151822,1038.19929 L701.025,1038.222 L700.908596,1038.61541 C699.550051,1043.06436 697.177418,1046.76128 693.897473,1050.12345 L693.566458,1050.45856 C687.670132,1056.35489 680.684036,1059.12 672.755896,1059.12 L672.755896,1059.12 L667.750191,1059.12 C658.944961,1058.8816 652.723961,1055.84519 647.337333,1050.45856 C641.441007,1044.56224 638.675896,1037.57614 638.675896,1029.648 L638.675896,1029.648 L638.675896,969.154296 C638.914298,960.349066 641.950705,954.128065 647.337333,948.741437 C653.233659,942.845111 660.219755,940.08 668.147896,940.08 L668.147896,940.08 L672.361794,940.08 C674.917341,940.145387 677.241593,940.442275 679.379898,940.951255 L679.671,941.023 L679.86459,940.962167 C683.82785,939.741528 687.925876,939.166775 692.190011,939.122748 Z M843.68923,939.12 C859.509542,939.12 870.66956,944.607391 878.489009,953.008452 C885.6709,960.724533 890.674703,971.871156 890.91839,987.710813 C890.920212,993.442937 889.619249,998.507057 886.933688,1002.96436 L886.929,1002.97 L886.95025,1003.12851 C887.082658,1004.22327 887.157133,1005.34611 887.173683,1006.49703 L887.17723,1006.992 C886.886612,1015.84853 884.532917,1021.13323 880.833054,1026.0266 C875.935285,1032.50429 869.625729,1036.2144 862.125673,1037.52949 C857.048349,1038.47656 851.799504,1038.96 846.37723,1038.96 C830.225334,1038.96 818.384757,1033.85652 809.838768,1025.83375 C800.869147,1017.41329 795.20923,1005.54311 795.20923,989.04 C795.20923,973.123051 800.254585,961.583334 808.031501,953.331493 C816.248145,944.613068 827.756246,939.12 843.68923,939.12 Z M633.314118,939.12 C638.769148,939.12 644.349046,939.56604 650.052492,940.475285 C657.682048,941.746272 663.839218,945.300084 668.662878,951.212959 C673.217774,956.79638 675.554118,963.247257 675.554118,970.608 C675.399563,975.205307 674.722381,978.821271 673.652828,981.777484 L673.533,982.098 L673.62771,982.298575 C675.829109,987.076387 677.107142,992.655243 677.182577,999.177746 L677.186118,999.792 C677.186118,1013.02283 671.862866,1023.02312 662.099696,1030.25832 C655.242827,1035.33975 645.558169,1038.96 632.162118,1038.96 C625.401577,1038.96 618.991045,1038.28703 612.925154,1036.98732 C605.728035,1035.45775 599.70028,1031.7389 595.018294,1025.5466 C590.809716,1019.98042 588.674118,1013.6746 588.674118,1006.608 L588.674118,1006.608 L588.674118,1005.39297 C588.810659,1000.94984 589.629391,997.227346 591.037313,994.042479 L591.039,994.038 L590.906662,993.734773 C589.008127,989.286124 587.97855,984.317855 587.909803,978.786772 L587.906118,978.192 C587.906118,965.110029 593.152539,955.143348 602.861838,947.883241 C609.58861,942.853312 619.396741,939.12 633.314118,939.12 Z M1087.74612,939.12 C1103.56643,939.12 1114.72645,944.607391 1122.5459,953.008452 C1129.72779,960.724533 1134.73159,971.871156 1134.97528,987.710813 C1134.9771,993.442937 1133.67614,998.507057 1130.99058,1002.96436 L1130.986,1002.97 L1131.00714,1003.12851 C1131.13955,1004.22327 1131.21402,1005.34611 1131.23057,1006.49703 L1131.23412,1006.992 C1130.9435,1015.84853 1128.58981,1021.13323 1124.88994,1026.0266 C1119.99218,1032.50429 1113.68262,1036.2144 1106.18256,1037.52949 C1101.10524,1038.47656 1095.85639,1038.96 1090.43412,1038.96 C1074.28222,1038.96 1062.44165,1033.85652 1053.89566,1025.83375 C1044.92604,1017.41329 1039.26612,1005.54311 1039.26612,989.04 C1039.26612,973.123051 1044.31148,961.583334 1052.08839,953.331493 C1060.30504,944.613068 1071.81314,939.12 1087.74612,939.12 Z M740.709674,939.12 C757.090589,939.12 767.633533,943.80149 774.191523,949.457005 C781.912588,956.115538 787.749674,966.406054 787.749674,982.608 L787.749674,982.608 L787.749674,1008.9257 C787.511271,1017.73093 784.474864,1023.95193 779.088236,1029.33856 C773.19191,1035.23489 766.205814,1038 758.277674,1038 L758.277674,1038 L754.351775,1038 C751.613689,1037.92994 749.141121,1037.59413 746.878292,1037.01644 L746.792,1036.993 L746.321259,1037.13606 C742.373177,1038.30515 738.182171,1038.9065 733.733858,1038.95659 L733.125674,1038.96 C721.722332,1038.96 712.542882,1034.94233 705.259111,1027.65856 C698.05215,1020.4516 693.957674,1011.244 693.957674,999.6 C693.957674,992.415325 695.385685,986.208114 698.076568,980.884155 L698.182,980.678 L698.118057,980.480416 C697.309352,977.892315 696.883777,975.118482 696.84122,972.158971 L696.837674,971.664 C697.128291,962.807473 699.481987,957.522768 703.18185,952.629401 C708.062063,946.174925 714.343963,942.468236 721.809993,941.140654 C729.095421,939.746187 735.399086,939.12 740.709674,939.12 Z M795.511452,939.12 C798.923387,939.12 803.462781,939.442146 809.124461,940.191486 C817.428066,941.51116 823.535204,945.091519 828.259943,950.730723 C832.913335,956.284771 835.351452,962.786986 835.351452,970.32 L835.351452,970.32 L835.351452,971.720479 C835.142504,978.66649 833.221391,983.925214 829.85557,988.215789 L829.624,988.504 L829.862174,988.780388 C833.934834,993.594159 836.01897,999.371921 836.115905,1006.11303 L836.119452,1006.608 L836.119452,1007.93875 C835.911804,1016.08615 833.3905,1021.8799 829.137213,1027.0636 C824.223058,1033.05272 818.030673,1036.54585 810.689027,1037.76945 C805.771047,1038.57432 801.054564,1038.96 796.471452,1038.96 C780.540072,1038.96 768.946984,1033.73503 760.61721,1025.52598 C752.308522,1017.33771 746.839452,1005.61384 746.839452,989.04 C746.839452,973.063038 751.957996,961.482093 759.882757,953.199824 C768.174299,944.534227 779.695462,939.12 795.511452,939.12 Z M984.478564,939.12 C1000.85948,939.12 1011.40242,943.80149 1017.96041,949.457005 C1025.68148,956.115538 1031.51856,966.406054 1031.51856,982.608 L1031.51856,982.608 L1031.51856,1008.9257 C1031.28016,1017.73093 1028.24375,1023.95193 1022.85713,1029.33856 C1016.9608,1035.23489 1009.9747,1038 1002.04656,1038 L1002.04656,1038 L998.120665,1038 C995.382579,1037.92994 992.910011,1037.59413 990.647182,1037.01644 L990.561,1036.993 L990.090149,1037.13606 C986.142067,1038.30515 981.951061,1038.9065 977.502748,1038.95659 L976.894564,1038.96 C965.491222,1038.96 956.311772,1034.94233 949.028001,1027.65856 C941.82104,1020.4516 937.726564,1011.244 937.726564,999.6 C937.726564,992.415325 939.154576,986.208114 941.845458,980.884155 L941.95,980.679 L941.886947,980.480416 C941.078242,977.892315 940.652668,975.118482 940.61011,972.158971 L940.606564,971.664 C940.897181,962.807473 943.250877,957.522768 946.95074,952.629401 C951.830954,946.174925 958.112853,942.468236 965.578884,941.140654 C972.864311,939.746187 979.167976,939.12 984.478564,939.12 Z M947.73975,918 C956.753677,918.245114 963.008619,921.408484 968.354722,926.916591 C974.00746,932.740624 976.716786,939.623523 976.716786,947.472 L976.716786,947.472 L976.716786,1008.91434 C976.487553,1017.62661 973.521386,1023.76018 968.354722,1029.08341 C962.50274,1035.11272 955.462799,1038 947.340786,1038 L947.340786,1038 L943.317785,1038 C940.803522,1037.93541 938.516631,1037.64775 936.414536,1037.15716 L936,1037.056 L935.508866,1037.20471 C931.605372,1038.35448 927.523775,1038.91259 923.230044,1038.9571 L922.668786,1038.96 C909.393948,1038.96 898.418769,1033.75959 889.886355,1023.05665 C883.374351,1014.88808 879.180786,1003.80862 879.180786,989.04 C879.180786,974.00047 883.350731,962.952083 889.589146,955.012283 C896.002942,946.849269 904.100495,941.729499 913.999783,939.889287 L914.202,939.853 L914.209008,939.823494 C915.451947,934.883207 917.870278,930.875536 921.2985,927.254908 L921.622849,926.916591 C927.474832,920.887276 934.514773,918 942.636786,918 L942.636786,918 Z M1022.36013,940.08 C1028.15097,940.223366 1032.73203,941.531814 1036.75217,943.772534 L1036.807,943.803 L1036.95599,943.720822 C1041.23788,941.38301 1045.91898,940.168428 1051.00192,940.084654 L1051.56834,940.08 L1057.38691,940.08 C1067.81546,940.395844 1074.38187,944.539462 1079.49597,951.494629 C1085.08538,959.096233 1086.4495,967.374034 1083.7287,976.304128 L1083.7287,976.304128 L1071.25744,1016.446 C1068.72017,1023.66185 1064.95393,1028.25457 1059.93258,1031.92873 C1054.36372,1036.00351 1048.17481,1038 1041.39234,1038 L1041.39234,1038 L1031.45486,1038 C1023.69113,1037.81877 1018.14861,1035.58179 1013.1561,1031.92873 C1007.48993,1027.78275 1003.70409,1022.38763 1001.72491,1015.79474 L1001.72491,1015.79474 L989.323224,975.876816 C986.613126,965.884386 988.59694,958.419447 993.688718,951.494629 C999.298574,943.865224 1006.8257,940.08 1016.24034,940.08 L1016.24034,940.08 Z M889.096712,971.76 C897.901942,971.998403 904.122942,975.034809 909.509571,980.421437 C915.405897,986.317763 918.171008,993.30386 918.171008,1001.232 L918.171008,1001.232 L918.171008,1008.9257 C917.932605,1017.73093 914.896199,1023.95193 909.509571,1029.33856 C903.613244,1035.23489 896.627148,1038 888.699008,1038 L888.699008,1038 L881.005304,1038 C872.200074,1037.7616 865.979073,1034.72519 860.592445,1029.33856 C854.696119,1023.44224 851.931008,1016.45614 851.931008,1008.528 L851.931008,1008.528 L851.931008,1000.8343 C852.16941,992.029066 855.205817,985.808065 860.592445,980.421437 C866.488771,974.525111 873.474867,971.76 881.403008,971.76 L881.403008,971.76 Z" id="space.dave" stroke="#FFFFFF" stroke-width="48" opacity="0.12" fill-rule="nonzero"></path>
            <path d="M692.723896,900.12 C719.481344,900.12 740.494154,910.706066 756.346169,930.699598 C767.139143,944.312358 775.307896,962.978456 775.307896,989.04 C775.307896,1014.43037 767.307278,1033.2234 756.015965,1047.36208 C747.901043,1057.52338 738.65866,1065.07316 728.345114,1070.13099 L727.944,1070.324 L727.927422,1070.34765 C726.004682,1072.8509 723.885757,1075.25863 721.578449,1077.59791 L721.143623,1078.03573 C707.433767,1091.74558 691.175264,1098.12 672.755896,1098.12 L672.755896,1098.12 L667.183211,1098.12 C646.675353,1097.62922 632.257978,1090.53354 619.760168,1078.03573 C606.050312,1064.32587 599.675896,1048.06737 599.675896,1029.648 L599.675896,1029.648 L599.675896,968.587316 C600.166671,948.079457 607.262358,933.662083 619.760168,921.164273 C633.470024,907.454417 649.728527,901.08 668.147896,901.08 L668.147896,901.08 L672.891757,901.08 C674.340462,901.112563 675.756632,901.177901 677.141853,901.275258 L677.719,901.318 L678.358033,901.213403 C682.835695,900.497778 687.399757,900.152084 692.057818,900.122136 L692.723896,900.12 Z M843.68923,900.12 C872.84155,900.12 892.802597,911.144401 907.03665,926.437186 C919.597115,939.9319 929.482097,959.051784 929.913775,987.110884 C929.917178,987.407674 929.919042,987.602979 929.920055,987.747573 L929.920906,987.899995 C929.920994,987.922425 929.92106,987.943639 929.921108,987.964043 L929.92123,988.08 C929.92123,996.298206 928.680603,1004.02597 926.142311,1011.23824 L926.025,1011.564 L925.985442,1012.20305 C924.909397,1028.11659 919.83318,1038.98353 912.29683,1049.07532 L911.941768,1049.54782 C900.696742,1064.42027 886.188265,1072.887 868.993386,1075.92078 C861.698642,1077.26359 854.161529,1077.96 846.37723,1077.96 C819.817786,1077.96 800.386532,1069.29308 785.866705,1056.72143 L785.672,1056.552 L710.770635,1056.552 C726.43449,1035.69326 741.358763,1017.77572 755.570537,1002.68014 L756.88,1001.299 L756.841176,1000.95498 C756.455211,997.423446 756.241146,993.749101 756.212534,989.925117 L756.20923,989.04 C756.20923,960.882008 766.047288,941.016251 779.649691,926.583168 C794.406383,910.925304 814.761146,900.12 843.68923,900.12 Z M633.314118,900.12 C640.769572,900.12 648.396805,900.718855 656.192351,901.961624 C673.723934,904.881963 687.832505,913.014722 698.882614,926.560016 C709.227216,939.240496 714.554118,953.886049 714.554118,970.608 C714.554118,971.055035 714.550311,971.500585 714.54257,971.941673 C714.534883,972.224704 714.526072,972.509315 714.516128,972.79552 C714.437137,975.069065 714.293829,977.237277 714.09007,979.307917 L714.019,979.994 L714.037356,980.071834 C715.37976,985.875822 716.129335,992.168053 716.183017,999.001161 L716.186118,999.792 C716.186118,1026.72292 705.124583,1046.91568 685.32026,1061.5921 C673.14498,1070.61485 656.198754,1077.96 632.162118,1077.96 C622.527699,1077.96 613.396052,1076.97347 604.75081,1075.12113 C588.354872,1071.62638 574.587228,1063.18987 563.90958,1049.06782 C554.474064,1036.58859 549.674118,1022.45382 549.674118,1006.608 L549.674118,1006.608 L549.674118,1004.72487 C549.772018,1001.27046 550.043642,997.999046 550.480717,994.895345 L550.491,994.816 L550.366528,994.172579 C549.444739,989.347112 548.950193,984.267852 548.908932,978.922554 L548.906118,978.192 C548.906118,951.547827 559.791973,931.391287 579.506884,916.649507 C591.392661,907.761944 608.429005,900.12 633.314118,900.12 Z M1087.74612,900.12 C1116.89844,900.12 1136.85949,911.144401 1151.09354,926.437186 C1163.65401,939.9319 1173.53899,959.051784 1173.97067,987.110884 C1173.97475,987.467032 1173.97662,987.677041 1173.97746,987.828651 L1173.978,987.964043 C1173.97809,988.004852 1173.97812,988.042421 1173.97812,988.08 C1173.97812,996.298206 1172.73749,1004.02597 1170.1992,1011.23824 L1170.082,1011.564 L1170.04233,1012.20305 C1168.96629,1028.11659 1163.89007,1038.98353 1156.35372,1049.07532 L1155.99866,1049.54782 C1144.75363,1064.42027 1130.24516,1072.887 1113.05028,1075.92078 C1105.75553,1077.26359 1098.21842,1077.96 1090.43412,1077.96 C1063.87468,1077.96 1044.44342,1069.29308 1029.9236,1056.72143 L1029.729,1056.551 L954.827525,1056.552 C970.49138,1035.69326 985.415653,1017.77572 999.627427,1002.68014 L1000.937,1001.299 L1000.89807,1000.95498 C1000.5121,997.423446 1000.29804,993.749101 1000.26942,989.925117 L1000.26612,989.04 C1000.26612,960.882008 1010.10418,941.016251 1023.70658,926.583168 C1038.46327,910.925304 1058.81804,900.12 1087.74612,900.12 Z M740.709674,900.12 C770.085576,900.12 788.114803,909.964912 799.661528,919.922637 C814.261324,932.513287 826.749674,951.413892 826.749674,982.608 L826.749674,982.608 L826.749674,1009.49268 C826.258898,1030.00054 819.163211,1044.41792 806.665401,1056.91573 C792.955545,1070.62558 776.697042,1077 758.277674,1077 L758.277674,1077 L753.821812,1077 C752.131657,1076.96201 750.485784,1076.87941 748.881677,1076.7534 L748.478,1076.719 L747.816773,1076.82856 C743.327102,1077.54823 738.684487,1077.92165 733.884821,1077.95719 L733.125674,1077.96 C710.367901,1077.96 692.173846,1069.72763 677.681946,1055.23573 C663.391673,1040.94545 654.957674,1022.7815 654.957674,999.6 C654.957674,991.26028 655.955275,983.606279 657.86471,976.589065 L657.966,976.221 L657.937624,975.687901 C657.882095,974.58361 657.849704,973.468103 657.84045,972.34138 L657.837674,971.664 C657.837674,971.266309 657.840533,970.870005 657.846312,970.475107 C657.854123,970.150991 657.863666,969.824938 657.874957,969.496915 C658.489495,951.642044 663.865529,939.963401 672.073136,929.108179 C683.275698,914.291887 697.717112,905.833033 714.826494,902.769725 C724.792184,900.882806 733.4295,900.12 740.709674,900.12 Z M795.511452,900.12 C800.203782,900.12 806.451692,900.497632 814.241601,901.52865 C814.461263,901.557723 814.679605,901.586978 814.89527,901.616857 C815.239133,901.667217 815.583661,901.720009 815.928853,901.77524 C833.438565,904.576794 847.363802,912.805236 858.154242,925.684149 C868.757394,938.339524 874.351452,953.145837 874.351452,970.32 L874.351452,970.32 L874.351452,972.371011 C874.204765,977.714054 873.629142,982.635125 872.64827,987.192928 L872.603,987.397 L872.620499,987.457646 C874.231018,993.237931 875.062999,999.395627 875.116675,1005.93062 L875.119452,1006.608 L875.119452,1008.45398 C874.712081,1026.98344 868.913274,1040.07002 859.287074,1051.80195 C848.051419,1065.4954 833.876408,1073.44285 817.100588,1076.23882 C809.910889,1077.41559 803.094121,1077.96 796.471452,1077.96 C768.067579,1077.96 747.931723,1067.78046 733.242068,1053.3037 C724.900513,1045.08303 717.815021,1034.96205 713.263851,1022.30179 L713.096,1021.831 L569.191311,994.420648 L711.751,960.477 L711.828934,960.215798 C715.92016,946.55674 722.866,935.594271 731.288711,926.674568 L731.704127,926.237539 C746.553426,910.718347 766.890479,900.12 795.511452,900.12 L795.511452,900.12 Z M984.478564,900.12 C1013.85447,900.12 1031.88369,909.964912 1043.43042,919.922637 C1058.03021,932.513287 1070.51856,951.413892 1070.51856,982.608 L1070.51856,982.608 L1070.51856,1009.49268 C1070.02779,1030.00054 1062.9321,1044.41792 1050.43429,1056.91573 C1036.72444,1070.62558 1020.46593,1077 1002.04656,1077 L1002.04656,1077 L997.590703,1077 C995.900547,1076.96201 994.254674,1076.87941 992.650567,1076.7534 L992.247,1076.719 L991.585663,1076.82856 C987.095993,1077.54823 982.453377,1077.92165 977.653712,1077.95719 L976.894564,1077.96 C954.136792,1077.96 935.942736,1069.72763 921.450837,1055.23573 C907.160563,1040.94545 898.726564,1022.7815 898.726564,999.6 C898.726564,991.26028 899.724165,983.606279 901.6336,976.589065 L901.735,976.221 L901.706514,975.687901 C901.650986,974.58361 901.618595,973.468103 901.60934,972.34138 L901.606564,971.664 C901.606564,971.266309 901.609423,970.870005 901.615202,970.475107 C901.623013,970.150991 901.632557,969.824938 901.643847,969.496915 C902.258385,951.642044 907.634419,939.963401 915.842026,929.108179 C927.044588,914.291887 941.486003,905.833033 958.595384,902.769725 C968.561075,900.882806 977.198391,900.12 984.478564,900.12 Z M948.310562,879 C969.369806,879.507711 983.901095,886.937829 996.340369,899.754051 C1009.46281,913.274137 1015.71679,929.261748 1015.71679,947.472 L1015.71679,947.472 L1015.71679,1009.463 C1015.2472,1029.72724 1008.30897,1043.91467 996.340369,1056.24595 C982.694916,1070.3049 966.269071,1077 947.340786,1077 L947.340786,1077 L942.784139,1077 C941.329701,1076.96706 939.90848,1076.9013 938.518903,1076.80353 L937.866,1076.754 L937.622717,1076.79527 C933.002787,1077.55121 928.255065,1077.92524 923.367902,1077.95768 L922.668786,1077.96 C897.078337,1077.96 875.860491,1068.02693 859.390905,1047.36771 C848.224896,1033.36122 840.180786,1014.59962 840.180786,989.04 C840.180786,963.081233 848.266892,944.479219 858.922731,930.917242 C866.819201,920.867188 876.025767,913.167878 886.62319,907.981081 L886.662,907.962 L886.982517,907.528217 C888.867628,904.995128 890.947005,902.561061 893.210618,900.196583 L893.637202,899.754051 C907.282656,885.695099 923.708501,879 942.636786,879 L942.636786,879 Z M1022.85834,901.08 C1027.80579,901.185296 1032.35727,901.675555 1036.59391,902.517393 L1036.827,902.565 L1037.53775,902.420452 C1041.81816,901.574309 1046.24081,901.128319 1050.80613,901.083717 L1051.56834,901.08 L1058.04307,901.08 C1083.05923,901.773827 1098.70118,911.778767 1110.91636,928.391402 C1124.29184,946.582063 1127.53275,966.392547 1121.00844,987.759955 L1121.00844,987.759955 L1108.28418,1028.71617 C1102.66533,1044.97612 1094.18136,1055.19397 1082.96247,1063.40291 C1070.47621,1072.5392 1056.59632,1077 1041.39234,1077 L1041.39234,1077 L1030.9925,1077 C1013.5887,1076.6544 1001.25916,1071.54897 990.126212,1063.40291 C977.400113,1054.09113 968.897233,1041.97539 964.426097,1027.18916 L964.426097,1027.18916 L951.845558,986.695549 C945.270761,962.745338 950.109719,944.927109 962.268328,928.391402 C975.694202,910.132213 993.710895,901.08 1016.24034,901.08 L1016.24034,901.08 Z M889.663692,932.76 C910.171551,933.250776 924.588925,940.346463 937.086735,952.844273 C950.796591,966.554129 957.171008,982.812632 957.171008,1001.232 L957.171008,1001.232 L957.171008,1009.49268 C956.680232,1030.00054 949.584545,1044.41792 937.086735,1056.91573 C923.376879,1070.62558 907.118376,1077 888.699008,1077 L888.699008,1077 L880.438324,1077 C859.930465,1076.50922 845.51309,1069.41354 833.015281,1056.91573 C819.305425,1043.20587 812.931008,1026.94737 812.931008,1008.528 L812.931008,1008.528 L812.931008,1000.26732 C813.421784,979.759457 820.517471,965.342083 833.015281,952.844273 C846.725137,939.134417 862.983639,932.76 881.403008,932.76 L881.403008,932.76 Z" id="space.dave" stroke="#FFFFFF" stroke-width="126" opacity="0.12" fill-rule="nonzero"></path>
            <path d="M697.723896,856.12 C739.342378,856.12 771.970054,872.667542 796.607792,903.742168 C812.572891,923.878329 825.307896,951.305925 825.307896,990.04 C825.307896,1027.80634 812.906836,1055.49725 796.178872,1076.44357 C785.874142,1089.34689 774.396621,1099.53018 761.798811,1107.10493 L761.311,1107.394 L760.973291,1107.75559 C760.188302,1108.58891 759.389146,1109.41672 758.575953,1110.23944 L757.963428,1110.85553 C735.23796,1133.581 708.280527,1144.12 677.755896,1144.12 L677.755896,1144.12 L671.542139,1144.12 C637.523926,1143.34132 613.645956,1131.56113 592.940363,1110.85553 C570.214896,1088.13006 559.675896,1061.17263 559.675896,1030.648 L559.675896,1030.648 L559.675896,968.946243 C560.454572,934.92803 572.23477,911.050061 592.940363,890.344468 C615.665831,867.619 642.623264,857.08 673.147896,857.08 L673.147896,857.08 L678.489363,857.08 C678.833481,857.087374 679.176485,857.095872 679.518384,857.10549 L680.236,857.127 L680.603861,857.083753 C685.89347,856.464077 691.258252,856.157145 696.702222,856.123179 Z M848.68923,856.12 C893.224635,856.12 923.340716,873.533258 944.976236,896.778032 C963.742748,916.9404 979.259859,945.260201 979.908451,987.418658 C979.912133,987.657961 979.915322,987.896833 979.917963,988.139829 C979.920141,988.452789 979.92123,988.76618 979.92123,989.08 C979.92123,1000.69014 978.431536,1011.7119 975.39181,1022.11877 L975.377,1022.166 L975.31851,1022.70188 C972.732926,1045.60952 964.674888,1061.89977 953.241372,1077.14988 L952.836438,1077.68769 C934.250975,1102.26847 910.255877,1116.22674 881.841624,1121.23188 C872.012079,1123.02292 861.859949,1123.96 851.37723,1123.96 C809.157697,1123.96 779.339101,1108.72233 757.346152,1088.07589 C733.446856,1065.63981 716.20923,1034.73599 716.20923,990.04 C716.20923,947.757728 731.57733,918.285003 751.901448,896.719717 C774.20435,873.054806 804.766801,856.12 848.68923,856.12 Z M638.314118,856.12 C648.077753,856.12 658.067296,856.895181 668.276804,858.522783 C668.512974,858.560433 668.74889,858.598481 668.98273,858.637719 C697.233803,863.346222 720.517068,876.76238 738.75154,899.114313 C755.776572,919.983708 764.554118,944.084655 764.554118,971.608 C764.554118,972.394189 764.546956,973.177586 764.532502,973.95351 C764.519847,974.419098 764.505349,974.887265 764.488993,975.358034 C764.472552,975.83123 764.454422,976.301672 764.434614,976.769386 L764.379,977.957 L764.445608,978.351552 C765.523104,985.018321 766.121148,992.072155 766.181115,999.542994 L766.186118,1000.792 C766.186118,1043.53071 748.503487,1075.48402 717.113219,1098.74645 C698.801311,1112.31688 673.476351,1123.96 637.162118,1123.96 C624.212476,1123.96 611.941789,1122.61182 600.323418,1120.12263 C573.311415,1114.36103 550.61161,1100.48075 533.01491,1077.20769 C517.548311,1056.75187 509.674118,1033.58369 509.674118,1007.608 L509.674118,1007.608 L509.674118,1004.9604 C509.735574,1002.73425 509.840286,1000.55363 509.987445,998.417069 L510.07,997.283 L510.019465,996.90494 C509.32883,991.572049 508.954608,986.051701 508.910528,980.33744 L508.906118,979.192 C508.906118,936.899132 526.299012,904.985064 557.55886,881.610584 C575.397335,868.271904 600.773925,856.12 638.314118,856.12 Z M1092.74612,856.12 C1137.28153,856.12 1167.39761,873.533258 1189.03313,896.778032 C1207.79964,916.9404 1223.31675,945.260201 1223.96534,987.418658 C1223.96902,987.657961 1223.97221,987.896833 1223.97485,988.139829 C1223.97703,988.452789 1223.97812,988.76618 1223.97812,989.08 C1223.97812,1000.69014 1222.48843,1011.7119 1219.4487,1022.11877 L1219.434,1022.166 L1219.3754,1022.70188 C1216.78982,1045.60952 1208.73178,1061.89977 1197.29826,1077.14988 L1196.89333,1077.68769 C1178.30787,1102.26847 1154.31277,1116.22674 1125.89851,1121.23188 C1116.06897,1123.02292 1105.91684,1123.96 1095.43412,1123.96 C1053.21459,1123.96 1023.39599,1108.72233 1001.40304,1088.07589 C977.503746,1065.63981 960.26612,1034.73599 960.26612,990.04 C960.26612,947.757728 975.63422,918.285003 995.958339,896.719717 C1018.26124,873.054806 1048.82369,856.12 1092.74612,856.12 Z M745.709674,856.12 C790.079792,856.12 816.747039,871.922706 834.049995,886.844521 C856.586788,906.279921 876.749674,935.115244 876.749674,983.608 L876.749674,983.608 L876.749674,1011.13376 C875.970997,1045.15197 864.190799,1069.02994 843.485206,1089.73553 C820.759738,1112.461 793.802305,1123 763.277674,1123 L763.277674,1123 L758.224206,1123 C757.535971,1122.98525 756.852188,1122.96601 756.172796,1122.9423 L755.724,1122.925 L755.178818,1122.99166 C750.010743,1123.59638 744.71528,1123.91582 739.29018,1123.95573 L738.125674,1123.96 C702.266636,1123.96 673.671112,1110.8645 650.862141,1088.05553 C628.398815,1065.59221 614.957674,1037.094 614.957674,1000.6 C614.957674,990.282108 615.93877,980.639582 617.829644,971.631735 L617.842,971.572 L617.852706,970.637915 C617.859255,970.358211 617.8666,970.077621 617.874745,969.796137 L617.901587,968.948998 C618.906269,939.758856 627.769616,920.702592 641.178466,902.968306 C659.679971,878.498573 683.54235,864.555587 711.788454,859.492405 C724.838663,857.042122 736.161821,856.12 745.709674,856.12 Z M800.511452,856.12 C806.681161,856.12 814.900435,856.561655 825.145993,857.917685 C825.528076,857.968255 825.907106,858.019319 826.281379,858.071566 C826.865893,858.156905 827.451574,858.246516 828.038426,858.340412 C856.912217,862.960218 879.858338,876.551833 897.647664,897.784255 C915.115925,918.63347 924.351452,943.021435 924.351452,971.32 L924.351452,971.32 L924.351452,974.113724 C924.243315,978.173794 923.986467,982.087637 923.584738,985.864542 L923.461,986.979 L923.57675,987.680271 C924.551119,993.73706 925.063901,1000.01761 925.115179,1006.52188 L925.119452,1007.608 L925.119452,1010.02983 C924.486149,1040.54901 914.904201,1062.05481 899.075376,1081.34619 C880.545682,1103.92926 857.159948,1117.01631 829.498542,1121.62654 C819.687631,1123.23244 810.447457,1123.96 801.471452,1123.96 C758.676241,1123.96 728.683346,1108.06364 706.655366,1086.35491 C699.856106,1079.65419 693.542177,1072.13487 688.066084,1063.62075 L687.557,1062.823 L359.368354,1000.31104 L684.221,922.964 L684.263119,922.889293 C689.753672,913.064608 696.337652,904.432305 703.568926,896.780667 L704.190324,896.127209 C726.606265,872.700023 757.115498,856.12 800.511452,856.12 Z M989.478564,856.12 C1033.84868,856.12 1060.51593,871.922706 1077.81889,886.844521 C1100.35568,906.279921 1120.51856,935.115244 1120.51856,983.608 L1120.51856,983.608 L1120.51856,1011.13376 C1119.73989,1045.15197 1107.95969,1069.02994 1087.2541,1089.73553 C1064.52863,1112.461 1037.5712,1123 1007.04656,1123 L1007.04656,1123 L1001.9931,1123 C1001.30486,1122.98525 1000.62108,1122.96601 999.941686,1122.9423 L999.493,1122.925 L998.947708,1122.99166 C993.779633,1123.59638 988.484171,1123.91582 983.05907,1123.95573 L981.894564,1123.96 C946.035526,1123.96 917.440002,1110.8645 894.631032,1088.05553 C872.167706,1065.59221 858.726564,1037.094 858.726564,1000.6 C858.726564,990.282108 859.70766,980.639582 861.598534,971.631735 L861.611,971.572 L861.621597,970.637915 C861.628145,970.358211 861.63549,970.077621 861.643636,969.796137 L861.670477,968.948998 C862.67516,939.758856 871.538506,920.702592 884.947356,902.968306 C903.448862,878.498573 927.31124,864.555587 955.557345,859.492405 C968.607554,857.042122 979.930711,856.12 989.478564,856.12 L989.478564,856.12 Z M953.956638,835 C988.921487,835.807413 1013.00543,848.161552 1033.6315,869.412659 C1055.37282,891.812806 1065.71679,918.305855 1065.71679,948.472 L1065.71679,948.472 L1065.71679,1011.08254 C1064.97332,1044.68356 1053.45105,1068.1672 1033.6315,1088.58734 C1010.99358,1111.91126 983.737846,1123 952.340786,1123 L952.340786,1123 L947.181598,1123 C946.827747,1122.99235 946.475088,1122.98352 946.123612,1122.97351 L945.279,1122.946 L944.479539,1123.04029 C939.335628,1123.62426 934.091194,1123.92163 928.740371,1123.95651 L927.668786,1123.96 C887.868016,1123.96 854.831708,1108.56616 829.203848,1076.41893 C812.667831,1055.67638 800.180786,1028.05078 800.180786,990.04 C800.180786,951.482115 812.785539,924.164376 828.538405,904.115272 C838.362137,891.612342 849.484258,881.432512 861.975655,873.717771 L862.77,873.231 L862.900468,873.087763 C863.832864,872.057059 864.785977,871.034899 865.759506,870.020427 L866.346071,869.412659 C888.983992,846.088741 916.239726,835 947.636786,835 L947.636786,835 Z M1028.41412,857.08 C1032.91437,857.170221 1037.21443,857.455608 1041.33709,857.926429 L1041.722,857.971 L1042.02632,857.934318 C1046.49331,857.398463 1051.04985,857.11451 1055.69612,857.082958 L1056.56834,857.08 L1063.79279,857.08 C1105.64548,858.207653 1131.7608,874.976429 1152.17065,902.733831 C1174.53047,933.143191 1179.93667,966.261271 1169.02291,1001.98017 L1169.02291,1001.98017 L1156.01694,1043.84312 C1146.84407,1070.55793 1132.91205,1087.27296 1114.53542,1100.71928 C1094.06754,1115.69578 1071.31344,1123 1046.39234,1123 L1046.39234,1123 L1035.48014,1123 C1006.9414,1122.46972 986.775662,1114.05274 968.553263,1100.71928 C947.685245,1085.44999 933.740986,1065.58457 926.393474,1041.35095 L926.393474,1041.35095 L913.60477,1000.18731 C902.566387,960.127343 910.700013,930.360898 931.014033,902.733831 C953.458388,872.209508 983.578433,857.08 1021.24034,857.08 L1021.24034,857.08 Z M895.304765,888.76 C929.322978,889.538677 953.200947,901.318875 973.90654,922.024468 C996.632008,944.749935 1007.17101,971.707368 1007.17101,1002.232 L1007.17101,1002.232 L1007.17101,1011.13376 C1006.39233,1045.15197 994.612133,1069.02994 973.90654,1089.73553 C951.181073,1112.461 924.223639,1123 893.699008,1123 L893.699008,1123 L884.797251,1123 C850.779038,1122.22132 826.901068,1110.44113 806.195475,1089.73553 C783.470008,1067.01006 772.931008,1040.05263 772.931008,1009.528 L772.931008,1009.528 L772.931008,1000.62624 C773.709684,966.60803 785.489882,942.730061 806.195475,922.024468 C828.920943,899.299 855.878376,888.76 886.403008,888.76 L886.403008,888.76 Z" id="space.dave" stroke="#FFFFFF" stroke-width="216" opacity="0.12" fill-rule="nonzero"></path>
        </g>
    </g>
</svg>