<svg xmlns="http://www.w3.org/2000/svg" width="33" height="32" viewBox="0 0 33 32">
    <g fill="none" fill-rule="evenodd">
        <g fill-rule="nonzero">
            <g transform="translate(-720 -2185) translate(720.5 2185)">
                <g fill="#FFC344">
                    <path d="M.698 8.635L.056.52C.023.092.536-.15.844.15l5.852 5.659L.698 8.635zM21.456 8.635L22.097.52c.034-.427-.479-.669-.787-.37l-5.852 5.659 5.998 2.827z" transform="translate(4.677 10.215)"/>
                </g>
                <path fill="#FFD15B" d="M19.25 3.24l-1.672-.913c-.12-.066-.218-.164-.284-.284L16.38.371c-.27-.495-.982-.495-1.252 0l-.915 1.672c-.065.12-.164.218-.283.284l-1.672.914c-.495.27-.495.982 0 1.252l1.672.915c.12.065.218.164.283.283l.915 1.672c.27.495.981.495 1.252 0l.914-1.672c.066-.12.164-.218.284-.283l1.672-.915c.495-.27.495-.981 0-1.252z"/>
                <path fill="#FFD15B" d="M19.25 3.24l-1.672-.913c-.12-.066-.218-.164-.284-.284L16.38.371c-.27-.495-.982-.495-1.252 0l-.915 1.672c-.065.12-.164.218-.283.284l-1.672.914c-.495.27-.495.982 0 1.252l1.672.915c.12.065.218.164.283.283l.915 1.672c.27.495.981.495 1.252 0l.914-1.672c.066-.12.164-.218.284-.283l1.672-.915c.495-.27.495-.981 0-1.252z"/>
                <path fill="#FFC344" d="M19.25 3.24l-1.672-.913c-.12-.066-.218-.164-.284-.284L16.38.37c-.27-.495-.982-.495-1.252 0l-.325.594.59 1.078c.065.12.163.218.283.284l.589.322c.963.526.963 1.91 0 2.437l-.589.322c-.12.065-.218.164-.284.283l-.59 1.078.326.594c.27.495.981.495 1.252 0l.914-1.672c.066-.12.164-.218.284-.283l1.672-.915c.495-.27.495-.981 0-1.252z"/>
                <path fill="#E94444" d="M18.607 14.056H12.9c-1.856 0-3.36-1.504-3.36-3.36 0-1.856 1.504-3.36 3.36-3.36h5.706c1.855 0 3.36 1.504 3.36 3.36 0 1.856-1.505 3.36-3.36 3.36z"/>
                <path fill="#D83131" d="M18.883 7.348c.723.617 1.182 1.533 1.182 2.557 0 1.856-1.505 3.36-3.36 3.36h-5.706c-.093 0-.185-.005-.276-.012.586.5 1.347.803 2.178.803h5.706c1.855 0 3.36-1.504 3.36-3.36 0-1.762-1.358-3.207-3.084-3.348z"/>
                <ellipse cx="16.066" cy="20.054" fill="#E94444" rx="13.094" ry="6.788"/>
                <path fill="#D83131" d="M16.066 13.265c-.32 0-.637.007-.951.018 6.788.253 12.143 3.187 12.143 6.77 0 3.584-5.355 6.518-12.143 6.77.314.013.63.019.95.019 7.233 0 13.095-3.04 13.095-6.789 0-3.749-5.862-6.788-13.094-6.788z"/>
                <path fill="#FFD15B" d="M31.3 16.185l-1.71 14.73H1.86L.15 16.185c-.051-.432.255-.782.559-.64l6.468 5.436c.222.186.553.15.729-.08l7.321-9.524c.251-.327.745-.327.996 0l7.32 9.525c.176.229.507.265.728.079l6.47-5.437c.304-.141.61.209.56.641z"/>
                <path fill="#000" fill-opacity=".1" d="M30.741 15.544l-1.405 1.18-1.648 14.19h1.902l1.71-14.729c.051-.432-.255-.782-.559-.64z"/>
                <path fill="#FFDD87" d="M30.24 31.508H1.268C.568 31.508 0 30.94 0 30.24c0-.7.568-1.268 1.268-1.268H30.24c.7 0 1.268.568 1.268 1.268 0 .7-.568 1.268-1.268 1.268z"/>
                <path fill="#000" fill-opacity=".1" d="M30.24 28.972h-1.902c.7 0 1.268.568 1.268 1.268 0 .7-.568 1.268-1.268 1.268h1.902c.7 0 1.268-.568 1.268-1.268 0-.7-.568-1.268-1.268-1.268z"/>
                <g transform="translate(13.108 19.815)">
                    <circle cx="2.736" cy="2.78" r="2.726" fill="#8379C1"/>
                    <path fill="#6E61B6" d="M2.736.054c-.334 0-.654.06-.95.17C2.821.61 3.56 1.61 3.56 2.78c0 1.17-.738 2.169-1.775 2.555.297.11.617.17.951.17 1.506 0 2.726-1.22 2.726-2.725 0-1.506-1.22-2.726-2.726-2.726z"/>
                </g>
                <g fill="#8379C1" transform="translate(3.138 22.83)">
                    <circle cx="1.843" cy="1.87" r="1.838"/>
                    <circle cx="23.568" cy="1.87" r="1.838"/>
                </g>
            </g>
        </g>
    </g>
</svg>
