<?xml version="1.0" encoding="UTF-8"?>
<svg width="14px" height="15px" viewBox="0 0 14 15" version="1.1" xmlns="http://www.w3.org/2000/svg" xmlns:xlink="http://www.w3.org/1999/xlink">
    <title>􀁢</title>
    <g id="Page-1" stroke="none" stroke-width="1" fill="none" fill-rule="evenodd">
        <g id="Profile-🛠WIP" transform="translate(-1015.000000, -69.000000)" fill="#FFFFFF" fill-rule="nonzero">
            <g id="Group-13" transform="translate(964.000000, 24.000000)">
                <path d="M58.0313339,59.2626953 C58.9838079,59.2626953 59.8781763,59.0826823 60.7144394,58.7226562 C61.5507024,58.3626302 62.286705,57.8647461 62.9224472,57.2290039 C63.5581894,56.5932617 64.0572128,55.8572591 64.4195175,55.0209961 C64.7818222,54.1847331 64.9629745,53.2903646 64.9629745,52.3378906 C64.9629745,51.3854167 64.7818222,50.4899089 64.4195175,49.6513672 C64.0572128,48.8128255 63.5581894,48.0756836 62.9224472,47.4399414 C62.286705,46.8041992 61.5495631,46.3063151 60.7110214,45.9462891 C59.8724797,45.586263 58.9769719,45.40625 58.024498,45.40625 C57.0765813,45.40625 56.1844914,45.586263 55.3482284,45.9462891 C54.5119654,46.3063151 53.7748235,46.8041992 53.1368026,47.4399414 C52.4987818,48.0756836 51.9997584,48.8128255 51.6397323,49.6513672 C51.2797063,50.4899089 51.0996933,51.3854167 51.0996933,52.3378906 C51.0996933,53.2903646 51.2808456,54.1847331 51.6431503,55.0209961 C52.005455,55.8572591 52.5044784,56.5932617 53.1402206,57.2290039 C53.7759628,57.8647461 54.5119654,58.3626302 55.3482284,58.7226562 C56.1844914,59.0826823 57.0788599,59.2626953 58.0313339,59.2626953 Z M58.0313339,57.3076172 C57.3431829,57.3076172 56.6983261,57.1788737 56.0967636,56.9213867 C55.4952011,56.6638997 54.9676946,56.3072917 54.514244,55.8515625 C54.0607935,55.3958333 53.7053248,54.8671875 53.4478378,54.265625 C53.1903508,53.6640625 53.0616073,53.0214844 53.0616073,52.3378906 C53.0616073,51.6497396 53.1903508,51.0048828 53.4478378,50.4033203 C53.7053248,49.8017578 54.0607935,49.273112 54.514244,48.8173828 C54.9676946,48.3616536 55.4952011,48.0050456 56.0967636,47.7475586 C56.6983261,47.4900716 57.3409042,47.3613281 58.024498,47.3613281 C58.7172063,47.3613281 59.3632024,47.4900716 59.9624862,47.7475586 C60.5617701,48.0050456 61.0892766,48.3616536 61.5450058,48.8173828 C62.0007349,49.273112 62.357343,49.8017578 62.61483,50.4033203 C62.872317,51.0048828 63.0010605,51.6497396 63.0010605,52.3378906 C63.0010605,53.0214844 62.872317,53.6640625 62.61483,54.265625 C62.357343,54.8671875 62.0018743,55.3958333 61.5484237,55.8515625 C61.0949732,56.3072917 60.5674667,56.6638997 59.9659042,56.9213867 C59.3643417,57.1788737 58.7194849,57.3076172 58.0313339,57.3076172 Z M57.361412,55.4208984 C57.6530787,55.4208984 57.8900579,55.2864583 58.0723495,55.0175781 L60.8955917,50.7792969 C60.9502792,50.6927083 60.9924342,50.6072591 61.0220565,50.5229492 C61.0516789,50.4386393 61.0664901,50.3554688 61.0664901,50.2734375 C61.0664901,50.0683594 60.9878769,49.8986003 60.8306503,49.7641602 C60.6734237,49.6297201 60.49455,49.5625 60.2940292,49.5625 C60.0342636,49.5625 59.8132349,49.7060547 59.6309433,49.9931641 L57.3477401,53.5957031 L56.3565292,52.40625 C56.2699407,52.3105469 56.1799342,52.2387695 56.0865097,52.190918 C55.9930852,52.1430664 55.8871282,52.1191406 55.7686386,52.1191406 C55.5635605,52.1191406 55.3869654,52.190918 55.2388534,52.3344727 C55.0907414,52.4780273 55.0166855,52.6523438 55.0166855,52.8574219 C55.0166855,53.0442708 55.0896021,53.2265625 55.2354355,53.4042969 L56.6299667,55.0380859 C56.7302271,55.1611328 56.8396021,55.2556966 56.9580917,55.3217773 C57.0765813,55.3878581 57.2110214,55.4208984 57.361412,55.4208984 Z" id="􀁢"></path>
            </g>
        </g>
    </g>
</svg>