<?xml version="1.0" encoding="utf-8"?>
<!-- Generator: Adobe Illustrator 25.0.0, SVG Export Plug-In . SVG Version: 6.00 Build 0)  -->
<svg version="1.1" id="Layer_1" xmlns="http://www.w3.org/2000/svg" xmlns:xlink="http://www.w3.org/1999/xlink" x="0px" y="0px"
	 viewBox="0 0 43 43" style="enable-background:new 0 0 43 43;" xml:space="preserve">
<style type="text/css">
	.st0{filter:url(#Adobe_OpacityMaskFilter);}
	.st1{fill-rule:evenodd;clip-rule:evenodd;fill:#FFFFFF;}
	.st2{mask:url(#mask-4_1_);}
	.st3{fill:#FFFFFF;}
	.st4{fill:#EDF1F5;}
	.st5{fill:#ECF0F3;}
	.st6{fill:#C9C9C9;}
	.st7{fill:#D6DFE4;}
</style>
<g id="Page-1">
	<g id="Desktop" transform="translate(-715.000000, -2403.000000)">
		<g id="Group-32" transform="translate(671.000000, 2395.000000)">
			<g id="sperm" transform="translate(44.000000, 8.000000)">
				<defs>
					<filter id="Adobe_OpacityMaskFilter" filterUnits="userSpaceOnUse" x="13.2" y="9.4" width="15.9" height="58.7">
						<feColorMatrix  type="matrix" values="1 0 0 0 0  0 1 0 0 0  0 0 1 0 0  0 0 0 1 0"/>
					</filter>
				</defs>
				<mask maskUnits="userSpaceOnUse" x="13.2" y="9.4" width="15.9" height="58.7" id="mask-4_1_">
					<g class="st0">
						<circle id="path-3_2_" class="st1" cx="21.1" cy="24.1" r="19"/>
					</g>
				</mask>
				<g class="st2">
					
						<g transform="translate(21.771127, 34.980000) rotate(-45.000000) translate(-21.771127, -34.980000) translate(-0.228873, 12.980000)">
						<path id="Combined-Shape" class="st3" d="M39.6,3.5c3.1,3.1,0.4,10.9-3.4,14.7c-3,3-6.6,3.5-9.6,2l-2.2,2.2
							c-0.4,0.4-0.9,0.4-1.3,0l0,0L20.7,20c-0.4-0.4-0.4-0.9,0-1.3l0,0l2.2-2.2c-1.5-2.9-1-6.6,2-9.6c0.7-0.7,1.5-1.4,2.5-2
							c0,0,1.3-0.8,2.1-1.2C33.2,2,37.5,1.4,39.6,3.5z"/>
						<path id="Combined-Shape_1_" class="st4" d="M38.4,2.6c0.5,0.2,0.9,0.5,1.3,0.9c3.1,3.1,0.4,10.9-3.4,14.7c-3,3-6.6,3.5-9.6,2
							l-2.2,2.2c-0.4,0.4-0.9,0.4-1.3,0l0,0l-1.6-1.6c0.4,0.4,0.9,0.4,1.3,0l0,0l1.9-1.9l0,0l-0.1-0.1l0,0l-0.2-0.2
							c-0.4-0.4-0.7-0.7-1-1.1c3.1,2.1,7.2,1.9,10.6-1.4C37.5,12.7,40,6.2,38.4,2.6z"/>
						<path id="Path" class="st5" d="M19.4,28.6c1.6-4.3,3.4-5.9,3.9-6.2c0,0,0,0,0,0l-2.4-2.4c-1.1,0.9-3,3.1-4.6,7.4
							c-1.4,4-4,5.6-7.8,5.6c-8.1,0-11,11.2-10.4,11.8c0.1,0.1,0.2,0.2,0.3,0.3c0.8,0.5,4.4-9,10.9-8.8
							C13.3,36.5,17.3,34.3,19.4,28.6z"/>
						<path id="Path_1_" class="st6" d="M22,21.2l-1.2-1.2L22,21.2z"/>
						<path id="Path_2_" class="st7" d="M23.2,22.4l-1.1-1.1c-0.4,0.3-2.3,1.9-3.9,6.2c-2,5.7-6,7.9-10.1,7.7
							c-4.9-0.2-8.2,5.2-9.8,7.6c-0.3,1.1-0.4,1.9-0.3,2c0.1,0.1,0.2,0.2,0.3,0.3c0.8,0.5,4.4-9,10.9-8.8c4.1,0.2,8.1-2,10.1-7.7
							C20.9,24.3,22.8,22.7,23.2,22.4C23.2,22.4,23.2,22.4,23.2,22.4z"/>
					</g>
				</g>
			</g>
		</g>
	</g>
</g>
</svg>
